<svg xmlns="http://www.w3.org/2000/svg" width="70" height="70" viewBox="0 0 70 70" fill="none">
    <path fill-rule="evenodd" clip-rule="evenodd" d="M34.1429 26C33.8509 26 33.5736 26.1276 33.3836 26.3492L28.2407 32.3492C27.9198 32.7237 27.9198 33.2763 28.2407 33.6508L33.3836 39.6508C33.5736 39.8724 33.8509 40 34.1429 40H34.5087C35.3631 40 35.824 38.9979 35.268 38.3492L31.5301 33.9884C31.5799 33.996 31.631 34 31.6829 34H41.6829C42.2352 34 42.6829 33.5523 42.6829 33C42.6829 32.4477 42.2352 32 41.6829 32H31.6829C31.631 32 31.5799 32.004 31.5301 32.0116L35.268 27.6508C35.824 27.0021 35.3631 26 34.5087 26H34.1429Z" fill="#129E4D"/>
</svg>