<svg width="13" height="13" viewBox="0 0 13 13" fill="none" xmlns="http://www.w3.org/2000/svg">
    <path d="M6.21289 0.710693C6.29973 0.428241 6.70027 0.428241 6.78711 0.710693L7.98926 4.62085C8.02807 4.74647 8.14389 4.83267 8.27539 4.83276H12.1992C12.4858 4.83276 12.6091 5.19533 12.3818 5.36987L9.17969 7.82886C9.08044 7.90506 9.03863 8.0354 9.0752 8.15503L10.292 12.1121C10.3778 12.3914 10.054 12.6162 9.82227 12.4382L6.68262 10.0271C6.5749 9.94446 6.4251 9.94444 6.31738 10.0271L3.17773 12.4382C2.94596 12.6162 2.6222 12.3914 2.70801 12.1121L3.9248 8.15503C3.96137 8.03539 3.91956 7.90507 3.82031 7.82886L0.618164 5.36987C0.390918 5.19532 0.514214 4.83276 0.800781 4.83276H4.72461C4.85612 4.83268 4.97193 4.74648 5.01074 4.62085L6.21289 0.710693Z"
          fill="white"/>
</svg>