<svg width="13" height="14" viewBox="0 0 13 14" fill="none" xmlns="http://www.w3.org/2000/svg">
    <path fill-rule="evenodd" clip-rule="evenodd"
          d="M7.02184 2.36388C6.82885 1.87871 6.17115 1.87871 5.97817 2.36388L4.87798 5.12975L2.02052 5.3692C1.51973 5.41131 1.31652 6.06491 1.69828 6.4068L3.87459 8.35629L3.20968 11.2705C3.09305 11.7814 3.6251 12.1855 4.05435 11.9115L6.5 10.3498L8.94625 11.9115C9.3749 12.1855 9.90696 11.7814 9.79032 11.2705L9.12541 8.35629L11.3017 6.4068C11.6835 6.06491 11.4803 5.41131 10.9795 5.36983L8.12262 5.12975L7.02184 2.36388Z"
          fill="#FBC821"/>
    <path fill-rule="evenodd" clip-rule="evenodd"
          d="M6.92696 3.20681C6.76906 2.80985 6.23094 2.80985 6.07304 3.20681L5.1729 5.4698L2.83497 5.66571C2.42523 5.70016 2.25897 6.23493 2.57132 6.51465L4.35194 8.10969L3.80792 10.494C3.71249 10.9121 4.14781 11.2427 4.49901 11.0185L6.5 9.74073L8.50148 11.0185C8.85219 11.2427 9.28751 10.9121 9.19208 10.494L8.64806 8.10969L10.4287 6.51465C10.741 6.23493 10.5748 5.70016 10.165 5.66622L7.8276 5.4698L6.92696 3.20681Z"
          fill="url(#paint0_linear_907_16647)"/>
    <defs>
        <linearGradient id="paint0_linear_907_16647" x1="6.5" y1="2.90909" x2="6.5" y2="11.0909"
                        gradientUnits="userSpaceOnUse">
            <stop stop-color="#FFFFED"/>
            <stop offset="1" stop-color="#FBC821"/>
        </linearGradient>
    </defs>
</svg>
