<svg width="13" height="14" viewBox="0 0 13 14" fill="none" xmlns="http://www.w3.org/2000/svg">
    <path fill-rule="evenodd" clip-rule="evenodd"
          d="M7.1262 1.43666C6.89462 0.854448 6.10538 0.854448 5.8738 1.43666L4.55358 4.75571L1.12462 5.04304C0.523671 5.09357 0.279828 5.87789 0.737936 6.28815L3.34951 8.62755L2.55161 12.1246C2.41165 12.7377 3.05012 13.2226 3.56522 12.8938L6.5 11.0197L9.4355 12.8938C9.94988 13.2226 10.5883 12.7377 10.4484 12.1246L9.65049 8.62755L12.2621 6.28815C12.7202 5.87789 12.4763 5.09357 11.8754 5.04379L8.44714 4.75571L7.1262 1.43666Z"
          fill="#FBC821"/>
    <path fill-rule="evenodd" clip-rule="evenodd"
          d="M7.01235 2.44817C6.82287 1.97182 6.17713 1.97182 5.98765 2.44817L4.90748 5.16376L2.10196 5.39885C1.61028 5.44019 1.41077 6.08191 1.78558 6.41758L3.92233 8.33163L3.2695 11.1928C3.15499 11.6945 3.67737 12.0912 4.09882 11.8222L6.5 10.2889L8.90177 11.8222C9.32263 12.0912 9.84501 11.6945 9.7305 11.1928L9.07767 8.33163L11.2144 6.41758C11.5892 6.08191 11.3897 5.44019 10.898 5.39947L8.09311 5.16376L7.01235 2.44817Z"
          fill="url(#paint0_linear_907_16640)"/>
    <defs>
        <linearGradient id="paint0_linear_907_16640" x1="6.5" y1="2.09091" x2="6.5" y2="11.9091"
                        gradientUnits="userSpaceOnUse">
            <stop stop-color="#FFFFED"/>
            <stop offset="1" stop-color="#FBC821"/>
        </linearGradient>
    </defs>
</svg>
