<svg xmlns="http://www.w3.org/2000/svg" width="33" height="34" fill="none"><circle cx="15" cy="15" r="15" fill="#76C06E"/><path fill="#93D38D" fill-rule="evenodd" d="M29.718 17.909c.185-.941.282-1.914.282-2.909 0-8.284-6.716-15-15-15S0 6.716 0 15s6.716 15 15 15a15 15 0 0 0 4.934-.83l-7.307-7.307 1.698-2.416-6.092-6.092 4.52-1.883-1.1-1.1 1.37-1.371 1.665 1.665.7-.292-1.407-1.406 1.72-1.719 2.114 2.115.972-.405 1.708 1.708.817-1.164z" clip-rule="evenodd"/><g filter="url(#a)"><path fill="#fff" fill-rule="evenodd" d="M16.59 9.061c-.453.752-.33 1.165-.23 1.501.105.353.185.622-.45 1.113a.19.19 0 0 0-.074.154c.045 1.038.214 4.465.506 5.218.025.065.092.046.104-.023.171-1.023.479-2.313.975-4.111a.095.095 0 0 0-.068-.117c-.55-.148-.947-.574-.947-1.076 0-.276.12-.528.317-.724a.1.1 0 0 0 .015-.124 1.5 1.5 0 0 1-.226-.803c0-.808.616-1.464 1.375-1.464.61 0 1.127.423 1.307 1.009.02.067.104.095.16.053.622-.47 1.465-.607 1.962-.164.427.381.113.992-.193 1.587a9 9 0 0 0-.222.453H20.9v.002c1.216.316 1.313 1.337.823 1.855-.23.243-.553.173-1.017.071-.525-.115-1.23-.269-2.183-.053l-.002.001c-.686 2.977-.714 4.3-.423 6.325.292 2.024-2.062 3.257-3.119 3.257h-.001c-1.057 0-3.39-1.233-3.1-3.257s.26-3.347-.421-6.324q0-.002-.002-.002c-.947-.216-1.648-.062-2.17.053-.461.102-.783.172-1.01-.07-.487-.519-.391-1.54.817-1.856v-.002a9 9 0 0 0-.222-.453c-.304-.595-.615-1.206-.191-1.587.494-.443 1.33-.305 1.95.163.055.042.139.014.159-.053.179-.585.693-1.008 1.299-1.008.755 0 1.366.656 1.366 1.464 0 .297-.082.573-.224.803a.1.1 0 0 0 .015.123c.197.197.316.45.316.725 0 .502-.395.928-.942 1.076a.096.096 0 0 0-.068.117c.5 1.82.807 3.12.976 4.149.01.06.072.088.106.037.33-.474.531-2.68.505-5.226a.19.19 0 0 0-.079-.15c-.583-.43-.514-.811-.437-1.239.087-.484.185-1.03-.643-1.779-.038-.035-.065-.085-.055-.137.034-.165.177-.142.331-.116.107.017.22.036.306-.007.03-.015.048-.047.058-.08.272-.91.876-1.365 1.413-1.365.7 0 .917.525 1.14 1.067.111.268.224.541.398.756a.21.21 0 0 1 .02.238m-5.767 2.58q.006-.002.007.003a.004.004 0 0 1-.007.002zm8.336 0a.004.004 0 0 0-.007.003q.002.006.007.003a.004.004 0 0 0 0-.006" clip-rule="evenodd"/></g><defs><filter id="a" width="21.999" height="24.001" x="4" y="5" color-interpolation-filters="sRGB" filterUnits="userSpaceOnUse"><feFlood flood-opacity="0" result="BackgroundImageFix"/><feColorMatrix in="SourceAlpha" result="hardAlpha" values="0 0 0 0 0 0 0 0 0 0 0 0 0 0 0 0 0 0 127 0"/><feOffset dy="2"/><feGaussianBlur stdDeviation="2"/><feComposite in2="hardAlpha" operator="out"/><feColorMatrix values="0 0 0 0 0 0 0 0 0 0 0 0 0 0 0 0 0 0 0.1 0"/><feBlend in2="BackgroundImageFix" result="effect1_dropShadow_105_29526"/><feBlend in="SourceGraphic" in2="effect1_dropShadow_105_29526" result="shape"/></filter></defs></svg>