<svg width="16" height="16" viewBox="0 0 16 16" fill="none" xmlns="http://www.w3.org/2000/svg">
    <path d="M6.45586 9.05443C6.45586 7.05443 4.83953 7.78299 4.45586 7.81662C3.39946 7.90921 2.40967 7.225 2.15073 7.02953C2.11197 7.00027 2.10276 6.94734 2.12779 6.90572C2.40832 6.4392 2.66941 6.25519 3.17242 6.06358C3.21762 6.04636 3.24471 5.99946 3.23724 5.95167C3.15611 5.4325 3.20438 5.15393 3.37789 4.6834C3.39052 4.64914 3.42111 4.62457 3.45731 4.61978C4.03802 4.543 4.32117 4.59619 4.72439 4.74515C4.77086 4.76232 4.82297 4.74352 4.84845 4.70104C5.05542 4.35589 5.25914 4.17054 5.56198 4.01271M9.45586 9.05443C9.45586 7.05443 11.1005 7.76118 11.4559 7.80706C12.5449 7.94766 13.5832 7.23041 13.8493 7.02952C13.8881 7.00026 13.8973 6.94734 13.8722 6.90572C13.5917 6.4392 13.3306 6.25519 12.8276 6.06358C12.7824 6.04636 12.7553 5.99946 12.7628 5.95167C12.8439 5.4325 12.7957 5.15393 12.6221 4.6834C12.6095 4.64914 12.5789 4.62457 12.5427 4.61978C11.962 4.543 11.6789 4.59619 11.2756 4.74515C11.2292 4.76232 11.1771 4.74353 11.1516 4.70105C10.9296 4.33088 10.7114 4.14452 10.3706 3.97878M7.9048 1.58456C7.47382 1.84101 7.26099 2.0271 6.99728 2.48161C6.97301 2.52345 6.92244 2.54285 6.87648 2.52778C6.35726 2.35757 6.03669 2.33816 5.51131 2.53333C5.47704 2.54606 5.45311 2.57597 5.44986 2.61239C5.42123 2.93266 5.34279 4.4917 6.45587 5.05443C8.45586 6.05443 5.45586 10.0544 5.95586 12.5544C6.45586 15.0544 9.45587 15.0544 9.95585 12.5544C10.4558 10.0544 7.45586 6.05443 9.45587 5.05443C10.6352 4.51172 10.5044 2.93995 10.4636 2.61402C10.4589 2.57672 10.4326 2.54726 10.3966 2.53625C9.86587 2.3736 9.54458 2.33841 9.03664 2.52373C8.99011 2.5407 8.93761 2.52258 8.9123 2.48C8.69271 2.11046 8.50615 1.89092 8.00655 1.5851C7.97541 1.56604 7.93618 1.56589 7.9048 1.58456Z"
          stroke="#256CA8" stroke-linecap="round"/>
</svg>
