<svg width="20" height="20" viewBox="0 0 20 20" fill="none" xmlns="http://www.w3.org/2000/svg">
    <path d="M9.44473 4.4131C9.15233 4.10473 8.7806 3.87407 8.35824 3.75691L7.20322 3.4375L6.99697 4.23305C6.65545 5.55186 7.28415 6.22773 8.35823 6.78304C9.43231 7.33836 10.1372 8.90625 10.1372 18.75C10.1372 8.90625 10.8526 7.33836 11.9425 6.78304C13.0324 6.22773 13.6704 5.55186 13.3239 4.23305L13.1146 3.4375L11.9425 3.75691C11.5139 3.87407 11.1367 4.10473 10.84 4.4131M10.7355 4.53125C10.8925 4.35903 11.0173 4.15419 11.1024 3.92924C11.1874 3.70392 11.231 3.46266 11.231 3.21875C11.231 2.97484 11.1874 2.73358 11.1024 2.50863C11.0173 2.28331 10.8928 2.07885 10.7355 1.90625L10.1372 1.25L9.53901 1.90625C9.38202 2.07847 9.25719 2.28331 9.17247 2.50863C9.0874 2.73396 9.04383 2.97522 9.04349 3.21875C9.04349 3.46266 9.0874 3.70392 9.17247 3.92924C9.25753 4.15457 9.43337 4.35903 9.59036 4.53125M4.13065 10.4358C3.74143 10.6063 3.39842 10.8779 3.14502 11.2355L2.453 12.2139L3.13154 12.6776C4.2565 13.4459 5.10547 13.0836 5.99199 12.2613C6.46729 11.8205 7.27623 11.6149 8.34883 11.6707C9.27681 11.719 10.1372 12.7344 10.1372 14.375M10.1372 12.7344C10.1372 11.0937 7.35993 10.1028 7.20695 8.88919C7.05398 7.67555 6.63438 6.84624 5.27618 6.72523L4.45678 6.65247L4.35998 7.86341C4.32492 8.30635 4.41406 8.73943 4.60359 9.1231M4.67932 9.26144C4.57052 9.05537 4.42012 8.86849 4.23733 8.71221C4.05418 8.5558 3.84197 8.43303 3.6125 8.35035C3.38303 8.26767 3.14129 8.22688 2.90082 8.23066C2.66 8.23431 2.42545 8.28212 2.20974 8.37163L1.38956 8.71199L1.80417 9.49725C1.91298 9.70332 2.06337 9.8902 2.24664 10.0463C2.42979 10.2027 2.642 10.3255 2.87099 10.4083C3.10047 10.491 3.34233 10.5315 3.58315 10.5278C3.82397 10.5242 4.07593 10.4281 4.29116 10.3387M15.9447 10.4087C16.3265 10.5819 16.6641 10.8554 16.9147 11.2141L17.5991 12.1952L16.9395 12.6521C15.8459 13.4091 15.013 13.0409 14.1397 12.2139C13.6715 11.7705 12.879 11.559 11.8309 11.6061C10.924 11.6467 10.0911 12.6522 10.1043 14.2881M10.0911 12.6522C10.0778 11.0163 12.785 10.0507 12.9247 8.84182C13.0645 7.63294 13.468 6.80942 14.7948 6.69972L15.5953 6.63377L15.6997 7.84198C15.7376 8.28392 15.6539 8.71501 15.4717 9.09605M15.3988 9.23331C15.5035 9.02872 15.649 8.8436 15.8264 8.68924C16.0042 8.53477 16.2107 8.41406 16.4344 8.33347C16.658 8.25288 16.894 8.21416 17.1292 8.21987C17.3646 8.22545 17.5943 8.27501 17.8059 8.36601L18.6105 8.71199L18.2115 9.49162C18.1068 9.69622 17.9612 9.88134 17.7833 10.0355C17.6055 10.19 17.3991 10.3107 17.1759 10.3915C16.9522 10.4721 16.7161 10.5104 16.4806 10.5049C16.2452 10.4993 15.9981 10.4014 15.7869 10.3106"
          stroke="#03934A" stroke-width="1.25" stroke-linecap="round" stroke-linejoin="round"/>
</svg>