<svg xmlns="http://www.w3.org/2000/svg" width="33" height="34" fill="none"><circle cx="15" cy="15" r="15" fill="#76C06E"/><path fill="#93D38D" fill-rule="evenodd" d="M29.128 20.053c.564-1.579.872-3.28.872-5.053 0-8.284-6.716-15-15-15S0 6.716 0 15s6.716 15 15 15c1.831 0 3.586-.328 5.208-.929L8.315 17.178l.004-.004 1.219-.308-1.327-1.327.35-.35-.483-.482.593-.593 2.41 2.41.428.16-1.17-1.168.317-.317-1.136-1.136.556-.557 1.137 1.137.492-.493-.621-.62.824-.825.106.105.199-.199-.36-.359.438-.437-.66-.66.869-.655.545-.986.773.773.21-.21.444.443.286-.286-.781-.78 1.325-1.326.03-1.003.487.486.107-.107.781.781.05-.05 1.45 1.449.275-.276z" clip-rule="evenodd"/><g filter="url(#a)"><path fill="#fff" fill-rule="evenodd" d="M15.528 7.548c-.024-.307-.235-.548-.491-.548h-.01c-.252.006-.457.244-.481.547-.158-.098-.299-.134-.39-.04-.14.146-.068.72.084 1.224-.322-.325-.726-.686-.914-.492-.22.229.39 2.214.733 2.698v.015c-.283-.301-.511-.672-.694-.968-.22-.358-.375-.608-.478-.501-.098.085-.173.337-.217.647l-.012-.013c-.333-.346-.857-.89-1.046-.694-.094.097.032.61.226 1.162-.246.009-.43.047-.467.112-.1.178.436.674.928.981l.003.006c-.357-.012-.655.027-.702.112-.104.184.472.708.977 1.012 1.776 1.071 2.034 2.953 2.068 3.647v.957l-.18-.107h.004s-1.718-.901-1.717-2.958c0-.47-.113-1.076-.272-1.075-.073 0-.215.194-.347.45l-.003-.008c-.008-.462-.118-1.027-.272-1.026-.056 0-.153.115-.254.283-.28-.348-.562-.634-.66-.606-.201.056-.054.633.039 1l.003.013c-.217-.09-.409-.134-.502-.098-.109.03-.008.235.137.527.122.245.274.553.358.871l-.007-.003c-.164-.416-1.224-1.632-1.46-1.565-.197.056-.123.476-.039.827-.265-.301-.608-.573-.757-.531-.097.027-.129.141-.126.291a.44.44 0 0 0-.42.002.33.33 0 0 0-.127.127.39.39 0 0 0 .018.387.5.5 0 0 0 .149.164c-.125.072-.203.156-.178.255.04.155.442.328.828.417-.335.097-.728.238-.675.444.063.242 1.592.587 2.03.533l.005.003c-.305.08-.635.096-.898.108-.315.015-.536.025-.507.138.017.1.15.25.333.4l-.011.003c-.352.097-.905.25-.852.457.027.102.408.213.84.292-.09.173-.136.316-.109.366.077.139.603-.042.992-.264h.003c-.146.243-.235.465-.199.53.08.143.64-.054 1.03-.286 1.71-1.014 3.324.076 3.324.076l-.002-.002.48.287v.006h.01l.013.008.085 2.672c0 .12-.035.31-.076.529-.072.391-.163.878-.103 1.234a.473.473 0 0 0 .94 0c.056-.356-.028-.843-.096-1.234-.038-.22-.071-.409-.071-.529 0-1.317.07-2.626.072-2.68h.008v-.046l.62-.37c.49-.253 1.773-.754 3.116.042.39.232.95.43 1.03.287.036-.066-.053-.287-.199-.53h.002c.389.222.915.402.992.264.027-.05-.02-.193-.108-.367.43-.078.812-.19.839-.292.053-.207-.5-.36-.852-.457l-.011-.003c.183-.15.317-.3.334-.4.03-.113-.192-.123-.507-.138-.262-.012-.59-.028-.894-.107l.005-.003c.441.052 1.963-.292 2.026-.534.053-.206-.34-.347-.675-.444.386-.089.788-.261.828-.416.025-.099-.052-.183-.175-.254a.5.5 0 0 0 .2-.314.36.36 0 0 0-.037-.239.36.36 0 0 0-.314-.177.5.5 0 0 0-.232.052c.003-.15-.03-.264-.126-.292-.15-.042-.492.23-.757.531.084-.35.159-.77-.04-.827-.235-.066-1.293 1.147-1.459 1.564l-.006.004c.083-.318.236-.625.357-.87.145-.292.246-.497.137-.528-.094-.036-.286.01-.503.099l.003-.014c.093-.367.24-.943.04-1-.1-.028-.38.258-.66.606-.102-.168-.198-.281-.254-.282-.154-.001-.264.562-.271 1.024l-.005.008c-.132-.254-.273-.447-.346-.448-.16-.001-.272.604-.272 1.074.001 2.057-1.717 2.959-1.717 2.959h.01l-.119.07v-.66l.006.01s-.137-2.583 2.091-3.914c.51-.304 1.092-.828.987-1.012-.048-.085-.35-.124-.711-.112l.003-.006c.496-.308 1.037-.803.935-.981-.037-.065-.223-.103-.47-.112.196-.551.323-1.065.228-1.162-.19-.197-.72.348-1.056.694l-.012.012c-.044-.31-.12-.561-.22-.646-.103-.107-.26.143-.482.5-.187.301-.421.678-.712.981v-.013c.344-.459.975-2.48.75-2.712-.19-.194-.598.166-.922.492.154-.504.226-1.079.084-1.225-.092-.094-.236-.058-.397.042m-.483 2.009-.009.01-.008-.01.01-.003zm-5.346 5.25.004.013-.012.003.001-.011zm10.603.007.003-.011.007.006.001.008z" clip-rule="evenodd"/></g><defs><filter id="a" width="22.003" height="24" x="4" y="5" color-interpolation-filters="sRGB" filterUnits="userSpaceOnUse"><feFlood flood-opacity="0" result="BackgroundImageFix"/><feColorMatrix in="SourceAlpha" result="hardAlpha" values="0 0 0 0 0 0 0 0 0 0 0 0 0 0 0 0 0 0 127 0"/><feOffset dy="2"/><feGaussianBlur stdDeviation="2"/><feComposite in2="hardAlpha" operator="out"/><feColorMatrix values="0 0 0 0 0 0 0 0 0 0 0 0 0 0 0 0 0 0 0.1 0"/><feBlend in2="BackgroundImageFix" result="effect1_dropShadow_105_29743"/><feBlend in="SourceGraphic" in2="effect1_dropShadow_105_29743" result="shape"/></filter></defs></svg>