<svg xmlns="http://www.w3.org/2000/svg" width="33" height="34" fill="none"><circle cx="15" cy="15" r="15" fill="#DA6465"/><path fill="#E67778" fill-rule="evenodd" d="M29.968 15.995Q30 15.502 30 15c0-8.284-6.716-15-15-15S0 6.716 0 15s6.716 15 15 15a15 15 0 0 0 3.538-.42l-6.459-6.457.691-1.582-1.666-1.666.401-.401-1.576-1.576.531-.531-1.34-1.342L12 14.5l1.5-.5.103-1.361L9.5 8.5l1.669-2.433.629.629.196-.196L13 6l1.164.5 1.537 1.537L16.5 7l.5-.5 1.55-.32 1.572 1.57.483-1.117z" clip-rule="evenodd"/><g filter="url(#a)"><path fill="#fff" fill-rule="evenodd" d="M15.182 9.34q.096-.009.192 0c.099-.577.205-1.077.332-1.5.147-.492.326-.896.565-1.2.498-.632 1.193-.755 2.15-.547.124.027.206.167.183.313-.023.147-.142.243-.267.216-.895-.194-1.39-.048-1.73.385-.18.229-.333.557-.47 1.012-.118.398-.22.88-.32 1.459a1.07 1.07 0 0 1 .49.62l.458 1.499a.2.2 0 0 0 .191.14c.705-.016 1.03-.158 1.221-.357.098-.101.183-.238.256-.427.035-.09-.007-.188-.087-.24-.635-.42-1.068-1.253-1.068-2.213 0-.493.408-.315.878-.11.824.359 1.838.8 1.18-2.141-.029-.127.067-.25.195-.23.985.156 1.747 1.207 1.747 2.481 0 1.236-.718 2.263-1.661 2.464a.22.22 0 0 0-.168.148c-.119.367-.285.686-.531.941-.39.405-.913.587-1.553.647a.208.208 0 0 0-.182.264l.306 1.004q.017.056.03.112l.952.01a3.4 3.4 0 0 1 1.654.45l1.485.85a.4.4 0 0 1-.398.695l-1.484-.85a2.6 2.6 0 0 0-1.265-.345l-.912-.01c-.058.342-.203.66-.416.925a.23.23 0 0 0-.03.239l.723-.006a3.4 3.4 0 0 1 1.872.545l1.1.712a.4.4 0 0 1-.434.671l-1.1-.711a2.6 2.6 0 0 0-1.432-.417l-.493.004q.025.316-.057.64a.2.2 0 0 0-.002.103q.052.241.042.496a3.4 3.4 0 0 1 1.289.517l1.018.677a.4.4 0 1 1-.444.666l-1.017-.677a2.6 2.6 0 0 0-1.036-.404l-.39.974c-.041.104.01.22.109.27.764.393 1.349 1.29 1.753 2.125.34.705-.362 1.357-1.09 1.066-.427-.17-.912.001-1.265.298-.256.215-.59.407-.973.407s-.718-.192-.973-.407c-.353-.297-.838-.469-1.266-.298-.727.291-1.43-.361-1.089-1.067.404-.834.989-1.73 1.753-2.123a.217.217 0 0 0 .109-.27l-.37-.927a2.6 2.6 0 0 0-.8.356l-1.018.677a.4.4 0 0 1-.443-.666l1.017-.677a3.4 3.4 0 0 1 1.037-.463q-.02-.282.039-.55a.2.2 0 0 0-.002-.102 2 2 0 0 1-.057-.643l-.238-.002a2.6 2.6 0 0 0-1.431.417l-1.1.712a.4.4 0 0 1-.435-.672l1.1-.712a3.4 3.4 0 0 1 1.872-.545l.468.004a.23.23 0 0 0-.03-.237 2 2 0 0 1-.415-.922l-.657.007a2.6 2.6 0 0 0-1.265.344l-1.485.85a.4.4 0 0 1-.398-.693l1.485-.851a3.4 3.4 0 0 1 1.654-.45l.695-.007q.015-.057.032-.115l.307-1.006a.208.208 0 0 0-.182-.264c-.629-.062-1.144-.245-1.529-.645-.245-.254-.41-.57-.53-.936a.22.22 0 0 0-.17-.148c-.955-.189-1.685-1.222-1.685-2.469 0-1.274.762-2.325 1.747-2.48.128-.02.223.102.195.229-.658 2.942.356 2.5 1.18 2.14.47-.204.878-.382.878.111 0 .95-.425 1.777-1.05 2.2-.078.053-.119.15-.085.239.074.196.16.337.261.441.19.197.508.337 1.195.356a.196.196 0 0 0 .192-.14l.457-1.498q.03-.098.078-.188c.1-.192.246-.336.412-.432a13 13 0 0 0-.32-1.46c-.136-.454-.289-.782-.47-1.011-.34-.433-.835-.579-1.73-.385-.124.027-.243-.07-.266-.216s.059-.286.183-.313c.957-.208 1.652-.085 2.15.548.24.303.418.707.565 1.2.127.422.233.922.332 1.498" clip-rule="evenodd"/></g><defs><filter id="a" width="20.811" height="26" x="5" y="4" color-interpolation-filters="sRGB" filterUnits="userSpaceOnUse"><feFlood flood-opacity="0" result="BackgroundImageFix"/><feColorMatrix in="SourceAlpha" result="hardAlpha" values="0 0 0 0 0 0 0 0 0 0 0 0 0 0 0 0 0 0 127 0"/><feOffset dy="2"/><feGaussianBlur stdDeviation="2"/><feComposite in2="hardAlpha" operator="out"/><feColorMatrix values="0 0 0 0 0 0 0 0 0 0 0 0 0 0 0 0 0 0 0.1 0"/><feBlend in2="BackgroundImageFix" result="effect1_dropShadow_105_29906"/><feBlend in="SourceGraphic" in2="effect1_dropShadow_105_29906" result="shape"/></filter></defs></svg>