<svg width="16" height="16" viewBox="0 0 16 16" fill="none" xmlns="http://www.w3.org/2000/svg">
    <g clip-path="url(#clip0_681_2602)">
        <path d="M7.33333 8.00004H7.34M8.66667 14.6667C9 14.3334 9.41333 14 10.3333 14M10.3333 14C9.41333 14 9 13.6667 8.66667 13.3334M10.3333 14C11.4826 14 12.5848 13.5435 13.3975 12.7308C14.2101 11.9182 14.6667 10.816 14.6667 9.66671C14.6667 8.51744 14.2101 7.41524 13.3975 6.60258C12.5848 5.78992 11.4826 5.33337 10.3333 5.33337H2.92467C2.70892 5.33451 2.49519 5.29176 2.29648 5.20773C2.09777 5.12369 1.91822 5.00013 1.76875 4.84454C1.61927 4.68896 1.503 4.5046 1.42699 4.30269C1.35098 4.10077 1.31683 3.8855 1.3266 3.66997C1.33637 3.45444 1.38987 3.24315 1.48385 3.04894C1.57782 2.85473 1.7103 2.68166 1.87325 2.54024C2.03619 2.39882 2.22618 2.29202 2.43169 2.22631C2.63719 2.16061 2.85391 2.13738 3.06867 2.15804L7.182 2.53204C7.6195 2.57145 8.05873 2.47817 8.44246 2.26437C8.82619 2.05056 9.13663 1.72614 9.33333 1.33337M10.3333 14C10.7754 14 11.1993 13.8244 11.5118 13.5119C11.8244 13.1993 12 12.7754 12 12.3334C12 11.8913 11.8244 11.4674 11.5118 11.1549C11.1993 10.8423 10.7754 10.6667 10.3333 10.6667H8C6.76232 10.6667 5.57534 10.175 4.70017 9.29987C3.825 8.4247 3.33333 7.23772 3.33333 6.00004V5.33337M9.33333 5.33337C9.77104 6.15408 10 7.06991 10 8.00004C10 8.93017 9.77104 9.846 9.33333 10.6667M10.6667 10.6667C12 10.6667 13.6667 8.00004 13.3333 6.66671"
              stroke="#256CA8" stroke-linecap="round" stroke-linejoin="round"/>
    </g>
    <defs>
        <clipPath id="clip0_681_2602">
            <rect width="16" height="16" fill="white"/>
        </clipPath>
    </defs>
</svg>
