<svg xmlns="http://www.w3.org/2000/svg" width="33" height="34" fill="none"><circle cx="15" cy="15" r="15" fill="#E6A804"/><path fill="#F7B507" fill-rule="evenodd" d="M29.305 19.528A15 15 0 0 0 30 15c0-8.284-6.716-15-15-15S0 6.716 0 15s6.716 15 15 15c1.474 0 2.898-.212 4.243-.608l-8.127-8.128L10.5 17.5l-.223-1.427 2.397-.477-3.262-3.262L10 11.5l1.5-1.5 6.858-1.419z" clip-rule="evenodd"/><g filter="url(#a)"><path fill="#fff" fill-rule="evenodd" d="M20.44 11.97c.071.097.094.128.062.03-.5-1.5-2.5-5-5.5-5s-5 3.5-5.5 5c-.154.461-.104.392.075.144.268-.371.825-1.144 1.425-1.144.467 0 .65.218.844.45.223.266.461.55 1.156.55.563 0 .812-.262 1.054-.518.232-.244.458-.482.946-.482.5 0 .75.25 1 .5s.5.5 1 .5.75-.25 1-.5.5-.5 1-.5c.725 0 1.25.714 1.438.97m.56 3.697C21 19.717 18.314 23 15 23s-6-3.283-6-7.333c0-.752.126-1.504.352-2.224a1.3 1.3 0 0 1 .223-.394C9.843 12.709 10.401 12 11 12c.467 0 .65.2.845.413.222.243.46.504 1.155.504.563 0 .812-.24 1.055-.475.23-.224.457-.442.945-.442.5 0 .75.23 1 .458.25.23.5.459 1 .459s.75-.23 1-.459.5-.458 1-.458c.725 0 1.25.654 1.438.889a.3.3 0 0 1 .04.07A7.6 7.6 0 0 1 21 15.667" clip-rule="evenodd"/></g><defs><filter id="a" width="20" height="24" x="5" y="5" color-interpolation-filters="sRGB" filterUnits="userSpaceOnUse"><feFlood flood-opacity="0" result="BackgroundImageFix"/><feColorMatrix in="SourceAlpha" result="hardAlpha" values="0 0 0 0 0 0 0 0 0 0 0 0 0 0 0 0 0 0 127 0"/><feOffset dy="2"/><feGaussianBlur stdDeviation="2"/><feComposite in2="hardAlpha" operator="out"/><feColorMatrix values="0 0 0 0 0 0 0 0 0 0 0 0 0 0 0 0 0 0 0.1 0"/><feBlend in2="BackgroundImageFix" result="effect1_dropShadow_105_29295"/><feBlend in="SourceGraphic" in2="effect1_dropShadow_105_29295" result="shape"/></filter></defs></svg>