<svg xmlns="http://www.w3.org/2000/svg" width="33" height="34" fill="none"><circle cx="15" cy="15" r="15" fill="#93B2C5"/><path fill="#95C2DF" fill-rule="evenodd" d="M29.26 19.67c.48-1.47.74-3.04.74-4.67 0-8.284-6.716-15-15-15S0 6.716 0 15s6.716 15 15 15c2.084 0 4.07-.425 5.873-1.193L9.066 17 20.5 14.5l2.305-1.285z" clip-rule="evenodd"/><g filter="url(#a)"><path fill="#fff" fill-rule="evenodd" d="M14 11c-4-.011-6 2.8-6 3.999s2 3.862 6 3.999c2.231.076 4.83-1.877 6.214-3.081l.016-.014c.195.335.51.597.926.789.612.283 1.319.521 1.734 0 .245-.308.035-.583-.197-.887-.184-.24-.38-.498-.38-.805s.197-.565.38-.805c.232-.304.442-.58.197-.887-.416-.521-1.122-.283-1.734 0-.421.195-.74.461-.934.802l-.02-.017C18.816 12.916 16.226 11.006 14 11" clip-rule="evenodd"/></g><defs><filter id="a" width="23" height="16" x="4" y="9" color-interpolation-filters="sRGB" filterUnits="userSpaceOnUse"><feFlood flood-opacity="0" result="BackgroundImageFix"/><feColorMatrix in="SourceAlpha" result="hardAlpha" values="0 0 0 0 0 0 0 0 0 0 0 0 0 0 0 0 0 0 127 0"/><feOffset dy="2"/><feGaussianBlur stdDeviation="2"/><feComposite in2="hardAlpha" operator="out"/><feColorMatrix values="0 0 0 0 0 0 0 0 0 0 0 0 0 0 0 0 0 0 0.1 0"/><feBlend in2="BackgroundImageFix" result="effect1_dropShadow_105_29357"/><feBlend in="SourceGraphic" in2="effect1_dropShadow_105_29357" result="shape"/></filter></defs></svg>