<svg width="16" height="16" viewBox="0 0 16 16" fill="none" xmlns="http://www.w3.org/2000/svg">
    <g clip-path="url(#clip0_681_2616)">
        <path d="M1.33331 14.6666L10.6666 5.33331M10.6666 5.33331H12C12.7072 5.33331 13.3855 5.05236 13.8856 4.55226C14.3857 4.05217 14.6666 3.37389 14.6666 2.66665V1.33331H13.3333C12.6261 1.33331 11.9478 1.61426 11.4477 2.11436C10.9476 2.61446 10.6666 3.29274 10.6666 3.99998V5.33331ZM4.35331 11.6466C4.78891 11.2093 5.03349 10.6172 5.03349 9.99998C5.03349 9.38273 4.78891 8.79063 4.35331 8.35331L3.33331 7.33331L2.31331 8.35331C1.87771 8.79063 1.63314 9.38273 1.63314 9.99998C1.63314 10.6172 1.87771 11.2093 2.31331 11.6466L3.33331 12.6666M4.35331 11.6466L3.33331 12.6666M4.35331 11.6466C4.79063 11.211 5.38273 10.9665 5.99998 10.9665C6.61723 10.9665 7.20933 11.211 7.64665 11.6466L8.66665 12.6666L7.64665 13.6866C7.20933 14.1222 6.61723 14.3668 5.99998 14.3668C5.38273 14.3668 4.79063 14.1222 4.35331 13.6866L3.33331 12.6666M7.01998 8.97998C7.45558 8.54266 7.70015 7.95056 7.70015 7.33331C7.70015 6.71607 7.45558 6.12396 7.01998 5.68665L5.99998 4.66665L4.97998 5.68665C4.54438 6.12396 4.29981 6.71607 4.29981 7.33331C4.29981 7.95056 4.54438 8.54266 4.97998 8.97998L5.99998 9.99998M7.01998 8.97998L5.99998 9.99998M7.01998 8.97998C7.4573 8.54438 8.0494 8.2998 8.66665 8.2998C9.28389 8.2998 9.876 8.54438 10.3133 8.97998L11.3333 9.99998L10.3133 11.02C9.876 11.4556 9.28389 11.7002 8.66665 11.7002C8.0494 11.7002 7.4573 11.4556 7.01998 11.02L5.99998 9.99998M9.68665 6.31331C10.1222 5.87599 10.3668 5.28389 10.3668 4.66665C10.3668 4.0494 10.1222 3.4573 9.68665 3.01998L8.66665 1.99998L7.64665 3.01998C7.21105 3.4573 6.96647 4.0494 6.96647 4.66665C6.96647 5.28389 7.21105 5.87599 7.64665 6.31331L8.66665 7.33331M9.68665 6.31331L8.66665 7.33331M9.68665 6.31331C10.124 5.87771 10.7161 5.63314 11.3333 5.63314C11.9506 5.63314 12.5427 5.87771 12.98 6.31331L14 7.33331L12.98 8.35331C12.5427 8.78891 11.9506 9.03349 11.3333 9.03349C10.7161 9.03349 10.124 8.78891 9.68665 8.35331L8.66665 7.33331"
              stroke="#256CA8" stroke-linecap="round" stroke-linejoin="round"/>
    </g>
    <defs>
        <clipPath id="clip0_681_2616">
            <rect width="16" height="16" fill="white"/>
        </clipPath>
    </defs>
</svg>
