<svg width="20" height="20" viewBox="0 0 20 20" fill="none" xmlns="http://www.w3.org/2000/svg">
<path d="M1.66666 18.3333L9.99999 9.99993M13.3333 6.6666L12.3583 7.6416M13.3333 6.6666H15C15.884 6.6666 16.7319 6.31541 17.357 5.69028C17.9821 5.06516 18.3333 4.21732 18.3333 3.33326V1.6666H16.6667C15.7826 1.6666 14.9348 2.01778 14.3096 2.64291C13.6845 3.26803 13.3333 4.11587 13.3333 4.99993L13.3333 6.6666ZM5.44166 14.5583C5.98616 14.0116 6.29187 13.2715 6.29187 12.4999C6.29187 11.7284 5.98616 10.9882 5.44166 10.4416L4.16666 9.1666L2.89166 10.4416C2.34716 10.9882 2.04144 11.7284 2.04144 12.4999C2.04144 13.2715 2.34716 14.0116 2.89166 14.5583L4.16666 15.8333M5.44166 14.5583L4.16666 15.8333M5.44166 14.5583C5.9883 14.0138 6.72843 13.708 7.49999 13.708C8.27155 13.708 9.01168 14.0138 9.55832 14.5583L10.8333 15.8333L9.55832 17.1083C9.01168 17.6528 8.27155 17.9585 7.49999 17.9585C6.72843 17.9585 5.9883 17.6528 5.44166 17.1083L4.16666 15.8333M6.66666 6.6666L6.22499 7.10826C5.68049 7.65491 5.37477 8.39504 5.37477 9.1666C5.37477 9.93816 5.68049 10.6783 6.22499 11.2249L7.49999 12.4999M7.49999 12.4999L8.77499 11.2249M7.49999 12.4999L8.77499 13.7749C9.32164 14.3194 10.0618 14.6251 10.8333 14.6251C11.6049 14.6251 12.345 14.3194 12.8917 13.7749L13.3333 13.3333M8.77499 11.2249C9.23332 10.7666 9.50832 10.1833 9.59166 9.58326M8.77499 11.2249C9.21984 10.7828 9.79569 10.4964 10.4167 10.4083M9.09166 4.38326C9.21666 4.1666 9.37499 3.95826 9.55832 3.77493L10.8333 2.49993L12.1083 3.77493C12.6092 4.27827 12.9093 4.94705 12.9522 5.65585C12.9952 6.36465 12.7781 7.06478 12.3417 7.62493M15.6167 10.9083C15.8333 10.7833 16.0417 10.6249 16.225 10.4416L17.5 9.1666L16.225 7.8916C15.7217 7.3907 15.0529 7.09064 14.3441 7.04768C13.6353 7.00472 12.9351 7.22182 12.375 7.65826M1.66666 1.6666L18.3333 18.3333" stroke="#EBA000" stroke-width="1.25" stroke-linecap="round" stroke-linejoin="round"/>
</svg>
