<svg xmlns="http://www.w3.org/2000/svg" width="33" height="34" fill="none"><circle cx="15" cy="15" r="15" fill="#E6A803"/><path fill="#F7B507" fill-rule="evenodd" d="M29.234 19.746C29.73 18.255 30 16.66 30 15c0-8.284-6.716-15-15-15S0 6.716 0 15s6.716 15 15 15c1.665 0 3.267-.271 4.763-.772l-9.487-9.488 3.015-3.015-2.131-2.131 3.498-3.498.787-5.139z" clip-rule="evenodd"/><g filter="url(#a)"><path fill="#fff" fill-rule="evenodd" d="M15.504 6.02a.67.67 0 0 0-1.008 0c-.575.64-1.443 1.766-1.494 2.774-.055 1.113.87 2.408 1.48 3.134a.668.668 0 0 0 1.036 0c.61-.726 1.535-2.02 1.48-3.134-.05-1.008-.92-2.134-1.494-2.774m-5.46 5.195a.667.667 0 0 1 .845-.704c.94.245 2.386.748 3.02 1.63.601.84.658 2.285.622 3.21a.668.668 0 0 1-.903.611c-.83-.292-2.066-.83-2.67-1.597-.639-.81-.847-2.227-.913-3.15m9.911 0a.667.667 0 0 0-.844-.704c-.94.245-2.386.748-3.019 1.63-.602.84-.659 2.285-.623 3.21a.668.668 0 0 0 .903.611c.83-.292 2.066-.83 2.67-1.597.639-.81.847-2.227.913-3.15m-10.102 3.6a.68.68 0 0 0-.852.711c.066 1.11.301 2.984 1.125 4.03.78.99 2.427 1.667 3.43 2.006.442.149.886-.151.91-.616.059-1.11.026-3.016-.749-4.097-.815-1.136-2.733-1.755-3.864-2.033M21 15.527a.68.68 0 0 0-.852-.71c-1.13.278-3.05.897-3.864 2.033-.775 1.08-.808 2.987-.75 4.097a.68.68 0 0 0 .91.616c1.004-.339 2.65-1.015 3.431-2.006.824-1.046 1.059-2.92 1.125-4.03" clip-rule="evenodd"/></g><defs><filter id="a" width="20" height="23.808" x="5" y="3.792" color-interpolation-filters="sRGB" filterUnits="userSpaceOnUse"><feFlood flood-opacity="0" result="BackgroundImageFix"/><feColorMatrix in="SourceAlpha" result="hardAlpha" values="0 0 0 0 0 0 0 0 0 0 0 0 0 0 0 0 0 0 127 0"/><feOffset dy="2"/><feGaussianBlur stdDeviation="2"/><feComposite in2="hardAlpha" operator="out"/><feColorMatrix values="0 0 0 0 0 0 0 0 0 0 0 0 0 0 0 0 0 0 0.1 0"/><feBlend in2="BackgroundImageFix" result="effect1_dropShadow_105_29271"/><feBlend in="SourceGraphic" in2="effect1_dropShadow_105_29271" result="shape"/></filter></defs></svg>