<svg xmlns="http://www.w3.org/2000/svg" width="33" height="34" fill="none"><circle cx="16" cy="15" r="15" fill="#E6A803"/><path fill="#F7B507" fill-rule="evenodd" d="M29.909 20.627A15 15 0 0 0 31 15c0-8.284-6.716-15-15-15S1 6.716 1 15s6.716 15 15 15c1.327 0 2.614-.172 3.84-.496l-8.549-8.549 3.014-3.014-2.245-2.244 2.589-2.654.568.568.254-1.611.21.21.79-5.02z" clip-rule="evenodd"/><g filter="url(#a)"><path fill="#fff" fill-rule="evenodd" d="M16.504 7.228a.67.67 0 0 0-1.008 0c-.575.64-1.443 1.766-1.494 2.774-.055 1.113.87 2.408 1.48 3.134a.668.668 0 0 0 1.036 0c.61-.726 1.535-2.02 1.48-3.134-.05-1.008-.92-2.134-1.494-2.774m-5.46 5.195a.667.667 0 0 1 .845-.704c.94.245 2.386.748 3.02 1.63.601.84.658 2.285.622 3.21a.668.668 0 0 1-.903.611c-.83-.292-2.066-.83-2.67-1.597-.639-.81-.847-2.227-.913-3.15m9.911 0a.667.667 0 0 0-.844-.704c-.94.245-2.386.748-3.019 1.63-.602.84-.659 2.285-.623 3.21a.668.668 0 0 0 .903.611c.83-.292 2.066-.83 2.67-1.597.639-.81.847-2.227.913-3.15m-10.102 3.6a.68.68 0 0 0-.852.711c.066 1.11.301 2.984 1.125 4.03.78.99 2.427 1.667 3.43 2.006.442.149.886-.151.91-.616.059-1.11.026-3.016-.749-4.097-.815-1.136-2.733-1.755-3.864-2.033M22 16.735a.68.68 0 0 0-.852-.71c-1.13.278-3.05.897-3.864 2.033-.775 1.08-.808 2.987-.75 4.097a.68.68 0 0 0 .91.616c1.004-.339 2.65-1.015 3.431-2.006.824-1.046 1.059-2.92 1.125-4.03" clip-rule="evenodd"/></g><g filter="url(#b)"><path fill="#fff" fill-rule="evenodd" d="M28.148 6.199 7.198 27.148a15 15 0 0 1-2.243-1.999L26.149 3.955c.738.678 1.408 1.43 1.999 2.244" clip-rule="evenodd"/></g><defs><filter id="a" width="20" height="23.808" x="6" y="5" color-interpolation-filters="sRGB" filterUnits="userSpaceOnUse"><feFlood flood-opacity="0" result="BackgroundImageFix"/><feColorMatrix in="SourceAlpha" result="hardAlpha" values="0 0 0 0 0 0 0 0 0 0 0 0 0 0 0 0 0 0 127 0"/><feOffset dy="2"/><feGaussianBlur stdDeviation="2"/><feComposite in2="hardAlpha" operator="out"/><feColorMatrix values="0 0 0 0 0 0 0 0 0 0 0 0 0 0 0 0 0 0 0.1 0"/><feBlend in2="BackgroundImageFix" result="effect1_dropShadow_105_29328"/><feBlend in="SourceGraphic" in2="effect1_dropShadow_105_29328" result="shape"/></filter><filter id="b" width="31.193" height="31.193" x=".955" y="1.955" color-interpolation-filters="sRGB" filterUnits="userSpaceOnUse"><feFlood flood-opacity="0" result="BackgroundImageFix"/><feColorMatrix in="SourceAlpha" result="hardAlpha" values="0 0 0 0 0 0 0 0 0 0 0 0 0 0 0 0 0 0 127 0"/><feOffset dy="2"/><feGaussianBlur stdDeviation="2"/><feComposite in2="hardAlpha" operator="out"/><feColorMatrix values="0 0 0 0 0 0 0 0 0 0 0 0 0 0 0 0 0 0 0.1 0"/><feBlend in2="BackgroundImageFix" result="effect1_dropShadow_105_29328"/><feBlend in="SourceGraphic" in2="effect1_dropShadow_105_29328" result="shape"/></filter></defs></svg>