<svg width="20" height="20" viewBox="0 0 20 20" fill="none" xmlns="http://www.w3.org/2000/svg">
<path d="M6.66666 1.6666H13.3333M7.49999 1.6666V2.78576M12.5 1.6666V3.99076C12.5 4.64892 12.6949 5.29234 13.06 5.83993L13.6067 6.65993C13.9719 7.20775 14.1668 7.85149 14.1667 8.50993V9.45243M6.49999 6.49993L6.39332 6.65993C6.02804 7.20775 5.83318 7.85149 5.83332 8.50993V16.6666C5.83332 17.1086 6.00892 17.5325 6.32148 17.8451C6.63404 18.1577 7.05796 18.3333 7.49999 18.3333H12.5C12.942 18.3333 13.3659 18.1577 13.6785 17.8451C13.9911 17.5325 14.1667 17.1086 14.1667 16.6666V14.1666M5.83332 12.4999C6.49311 12.2235 7.20131 12.0812 7.91666 12.0812C8.632 12.0812 9.3402 12.2235 9.99999 12.4999C10.9035 12.8785 11.8931 13.0038 12.8625 12.8624M1.66666 1.6666L18.3333 18.3333" stroke="#3188D2" stroke-width="1.25" stroke-linecap="round" stroke-linejoin="round"/>
</svg>
