<svg xmlns="http://www.w3.org/2000/svg" width="33" height="34" fill="none"><circle cx="16" cy="15" r="15" fill="#93B2C5"/><path fill="#95C2DF" fill-rule="evenodd" d="M30.796 17.48A15 15 0 0 0 31 15c0-8.284-6.716-15-15-15S1 6.716 1 15s6.716 15 15 15c.99 0 1.957-.096 2.893-.279L12.672 23.5 16 7l2.526-1.79z" clip-rule="evenodd"/><g filter="url(#a)"><path fill="#fff" d="M12 12.79a2 2 0 0 1 .399-1.198l1.912-2.555c.231-.308.356-.683.356-1.068V6.854A.667.667 0 0 0 14 6.187h-.073a.594.594 0 0 1 0-1.187h4.146a.594.594 0 1 1 0 1.188H18a.667.667 0 0 0-.667.666V7.97c0 .385.125.76.356 1.068l1.912 2.555A2 2 0 0 1 20 12.791V22a2 2 0 0 1-2 2h-4a2 2 0 0 1-2-2z"/><path fill="#93B2C5" d="M13 17.17a1.33 1.33 0 0 1 1.934-1.188c.207.106.383.263.51.457l.054.081c.313.478.846.766 1.418.766h.952A1.132 1.132 0 0 1 19 18.418V20a3 3 0 1 1-6 0z"/></g><g filter="url(#b)"><path fill="#fff" fill-rule="evenodd" d="M28.148 6.199 7.2 27.149a15 15 0 0 1-2.244-2L26.15 3.956c.738.679 1.408 1.43 1.998 2.244" clip-rule="evenodd"/></g><defs><filter id="a" width="16" height="27" x="8" y="3" color-interpolation-filters="sRGB" filterUnits="userSpaceOnUse"><feFlood flood-opacity="0" result="BackgroundImageFix"/><feColorMatrix in="SourceAlpha" result="hardAlpha" values="0 0 0 0 0 0 0 0 0 0 0 0 0 0 0 0 0 0 127 0"/><feOffset dy="2"/><feGaussianBlur stdDeviation="2"/><feComposite in2="hardAlpha" operator="out"/><feColorMatrix values="0 0 0 0 0 0 0 0 0 0 0 0 0 0 0 0 0 0 0.1 0"/><feBlend in2="BackgroundImageFix" result="effect1_dropShadow_105_29553"/><feBlend in="SourceGraphic" in2="effect1_dropShadow_105_29553" result="shape"/></filter><filter id="b" width="31.193" height="31.193" x=".955" y="1.955" color-interpolation-filters="sRGB" filterUnits="userSpaceOnUse"><feFlood flood-opacity="0" result="BackgroundImageFix"/><feColorMatrix in="SourceAlpha" result="hardAlpha" values="0 0 0 0 0 0 0 0 0 0 0 0 0 0 0 0 0 0 127 0"/><feOffset dy="2"/><feGaussianBlur stdDeviation="2"/><feComposite in2="hardAlpha" operator="out"/><feColorMatrix values="0 0 0 0 0 0 0 0 0 0 0 0 0 0 0 0 0 0 0.1 0"/><feBlend in2="BackgroundImageFix" result="effect1_dropShadow_105_29553"/><feBlend in="SourceGraphic" in2="effect1_dropShadow_105_29553" result="shape"/></filter></defs></svg>