<svg width="16" height="16" viewBox="0 0 16 16" fill="none" xmlns="http://www.w3.org/2000/svg">
    <g clip-path="url(#clip0_681_2606)">
        <path d="M3.59999 7.20005C3.59999 7.20005 3.64874 7.86948 4.02445 8.166C4.40015 8.46252 4.84237 8.66313 5.31293 8.7505C5.78349 8.83787 6.26825 8.80938 6.72534 8.66749C7.18243 8.5256 7.59811 8.27457 7.9365 7.93608C8.27489 7.5976 8.52582 7.18182 8.66761 6.72466C8.8094 6.2675 8.83779 5.78269 8.75034 5.3121C8.66289 4.84151 8.46222 4.39928 8.16566 4.02359C7.8691 3.64791 7.19999 3.60005 7.19999 3.60005M2.04919 8.37883C1.4887 9.18262 1.24277 10.1642 1.35805 11.1373C1.47332 12.1104 1.94179 13.0073 2.67456 13.6579C3.40733 14.3085 4.35342 14.6675 5.33333 14.6667C10.488 14.6667 14.6667 10.4881 14.6667 5.33339C14.6674 4.35349 14.3084 3.40739 13.6579 2.67462C13.0073 1.94185 12.1103 1.47338 11.1372 1.35811C10.1641 1.24283 9.18255 1.48877 8.37877 2.04925L5.19999 5.33339L2.04919 8.37883Z"
              stroke="#256CA8" stroke-linecap="round" stroke-linejoin="round"/>
    </g>
    <defs>
        <clipPath id="clip0_681_2606">
            <rect width="16" height="16" fill="white"/>
        </clipPath>
    </defs>
</svg>
