<svg xmlns="http://www.w3.org/2000/svg" width="33" height="34" fill="none"><circle cx="15" cy="15" r="15" fill="#D2A04F"/><path fill="#D2A04F" fill-rule="evenodd" d="M28.836 20.804A15 15 0 0 0 30 15c0-8.284-6.716-15-15-15S0 6.716 0 15s6.716 15 15 15c3.844 0 7.35-1.446 10.005-3.824L11.036 12.208l.001-.003 1.89.671-.761-.76 2.78-2.781 4.565 4.564 1.864-.556z" clip-rule="evenodd"/><path fill="#E3B466" fill-rule="evenodd" d="M30 15c0 2.058-.414 4.018-1.164 5.804l-7.461-7.461-1.864.556-4.565-4.564-2.78 2.78.76.761-1.889-.67v.002l13.968 13.968q-.467.419-.968.797l-9.857-9.858-4.58 3.806 8.713 8.712c-1.066.24-2.175.367-3.313.367-8.284 0-15-6.716-15-15S6.716 0 15 0s15 6.716 15 15" clip-rule="evenodd"/><g filter="url(#a)"><path fill="#fff" d="M14.38 17.42a3 3 0 0 1-5.344 2.73c-.754-1.476 1.51-2.698 1.892-2.892.382-.195 2.698-1.313 3.451.163"/><path fill="#D2A04F" fill-rule="evenodd" d="M11.318 18.022c.421-.216.632-.647.47-.963a.5.5 0 0 0-.094-.128c.86-.304 2.157-.545 2.686.49a3 3 0 1 1-5.344 2.729c-.529-1.036.428-1.946 1.178-2.464a.5.5 0 0 0 .048.153c.162.316.634.398 1.056.183" clip-rule="evenodd"/><path fill="#fff" fill-rule="evenodd" d="M11.707 18.784c.843-.43 1.309-1.206 1.04-1.733a.75.75 0 0 0-.33-.321c.749-.143 1.569-.08 1.962.69a3 3 0 1 1-5.343 2.729c-.394-.771.036-1.473.59-1.994a.75.75 0 0 0 .067.455c.27.527 1.171.605 2.014.174" clip-rule="evenodd"/><path fill="#fff" d="M21.712 13.922a3 3 0 1 1-5.773 1.634c-.452-1.594 2.007-2.35 2.42-2.467s2.901-.761 3.353.833"/><path fill="#D2A04F" fill-rule="evenodd" d="M18.592 13.914c.456-.129.746-.51.65-.852a.5.5 0 0 0-.068-.144c.902-.13 2.222-.114 2.538 1.004a3 3 0 1 1-5.773 1.634c-.317-1.118.799-1.824 1.635-2.186a.5.5 0 0 0 .018.16c.097.34.545.513 1 .384" clip-rule="evenodd"/><path fill="#fff" fill-rule="evenodd" d="M18.825 14.738c.91-.258 1.519-.928 1.358-1.497a.75.75 0 0 0-.26-.38c.76.006 1.553.228 1.789 1.06a3 3 0 1 1-5.774 1.635c-.235-.833.323-1.437.969-1.841a.75.75 0 0 0-.023.46c.16.569 1.03.821 1.94.563" clip-rule="evenodd"/><path fill="#fff" d="M15.656 11.758a3 3 0 0 1-4.99-3.332c.921-1.378 3.092.002 3.448.24.356.239 2.462 1.715 1.542 3.092"/><path fill="#D2A04F" fill-rule="evenodd" d="M13.638 9.38c.393.262.872.236 1.07-.06a.5.5 0 0 0 .066-.145c.684.602 1.528 1.617.882 2.584a3 3 0 0 1-4.99-3.333c.646-.966 1.907-.576 2.726-.174a.5.5 0 0 0-.11.117c-.197.295-.038.748.356 1.01" clip-rule="evenodd"/><path fill="#fff" fill-rule="evenodd" d="M13.162 10.092c.787.525 1.691.553 2.02.06a.75.75 0 0 0 .12-.443c.49.583.835 1.33.354 2.05a3 3 0 1 1-4.99-3.333c.481-.72 1.303-.687 2.03-.458a.75.75 0 0 0-.365.28c-.329.493.043 1.318.83 1.844" clip-rule="evenodd"/></g><defs><filter id="a" width="20.943" height="21.964" x="4.883" y="5.822" color-interpolation-filters="sRGB" filterUnits="userSpaceOnUse"><feFlood flood-opacity="0" result="BackgroundImageFix"/><feColorMatrix in="SourceAlpha" result="hardAlpha" values="0 0 0 0 0 0 0 0 0 0 0 0 0 0 0 0 0 0 127 0"/><feOffset dy="2"/><feGaussianBlur stdDeviation="2"/><feComposite in2="hardAlpha" operator="out"/><feColorMatrix values="0 0 0 0 0 0 0 0 0 0 0 0 0 0 0 0 0 0 0.1 0"/><feBlend in2="BackgroundImageFix" result="effect1_dropShadow_105_30101"/><feBlend in="SourceGraphic" in2="effect1_dropShadow_105_30101" result="shape"/></filter></defs></svg>