<svg width="16" height="16" viewBox="0 0 16 16" fill="none" xmlns="http://www.w3.org/2000/svg">
    <path d="M5.33332 1.33331H10.6667M5.99999 1.33331V3.19265C5.99998 3.71917 5.84409 4.23391 5.55199 4.67198L5.11466 5.32798C4.82243 5.76624 4.66654 6.28123 4.66666 6.80798V13.3333C4.66666 13.6869 4.80713 14.0261 5.05718 14.2761C5.30723 14.5262 5.64637 14.6666 5.99999 14.6666H9.99999C10.3536 14.6666 10.6928 14.5262 10.9428 14.2761C11.1928 14.0261 11.3333 13.6869 11.3333 13.3333V6.80731C11.3333 6.28079 11.1774 5.76605 10.8853 5.32798L10.448 4.67198C10.1558 4.23372 9.99987 3.71873 9.99999 3.19198V1.33331M4.66666 9.99998C5.19451 9.77892 5.76106 9.66508 6.33332 9.66508C6.90559 9.66508 7.47214 9.77892 7.99999 9.99998C8.52782 10.2211 9.09438 10.335 9.66666 10.335C10.2389 10.335 10.8055 10.2211 11.3333 9.99998"
          stroke="#256CA8" stroke-linecap="round" stroke-linejoin="round"/>
</svg>
