<svg xmlns="http://www.w3.org/2000/svg" width="33" height="34" fill="none"><circle cx="15" cy="15" r="15" fill="#93B2C5"/><path fill="#95C2DF" fill-rule="evenodd" d="M29.796 17.48A15 15 0 0 0 30 15c0-8.284-6.716-15-15-15S0 6.716 0 15s6.716 15 15 15c.99 0 1.957-.096 2.893-.279L11.672 23.5 15 7l2.526-1.79z" clip-rule="evenodd"/><g filter="url(#a)"><path fill="#fff" d="M11 12.79a2 2 0 0 1 .399-1.198l1.912-2.555c.231-.308.356-.683.356-1.068V6.854A.667.667 0 0 0 13 6.187h-.073a.594.594 0 0 1 0-1.187h4.146a.594.594 0 1 1 0 1.188H17a.667.667 0 0 0-.667.666V7.97c0 .385.125.76.356 1.068l1.912 2.555A2 2 0 0 1 19 12.791V22a2 2 0 0 1-2 2h-4a2 2 0 0 1-2-2z"/><path fill="#93B2C5" d="M12 17.17a1.33 1.33 0 0 1 1.934-1.188c.207.106.383.263.51.457l.054.081c.313.478.846.766 1.418.766h.952A1.132 1.132 0 0 1 18 18.418V20a3 3 0 1 1-6 0z"/></g><defs><filter id="a" width="16" height="27" x="7" y="3" color-interpolation-filters="sRGB" filterUnits="userSpaceOnUse"><feFlood flood-opacity="0" result="BackgroundImageFix"/><feColorMatrix in="SourceAlpha" result="hardAlpha" values="0 0 0 0 0 0 0 0 0 0 0 0 0 0 0 0 0 0 127 0"/><feOffset dy="2"/><feGaussianBlur stdDeviation="2"/><feComposite in2="hardAlpha" operator="out"/><feColorMatrix values="0 0 0 0 0 0 0 0 0 0 0 0 0 0 0 0 0 0 0.1 0"/><feBlend in2="BackgroundImageFix" result="effect1_dropShadow_105_29262"/><feBlend in="SourceGraphic" in2="effect1_dropShadow_105_29262" result="shape"/></filter></defs></svg>