<svg width="16" height="16" viewBox="0 0 16 16" fill="none" xmlns="http://www.w3.org/2000/svg">
    <path d="M9.33332 7.33333C9.33332 7.68695 9.19285 8.02609 8.9428 8.27613C8.69275 8.52618 8.35361 8.66666 7.99999 8.66666C7.64637 8.66666 7.30723 8.52618 7.05718 8.27613C6.80713 8.02609 6.66666 7.68695 6.66666 7.33333C6.66666 6.62608 6.94761 5.9478 7.4477 5.44771C7.9478 4.94761 8.62608 4.66666 9.33332 4.66666C10.0406 4.66666 10.7188 4.94761 11.2189 5.44771C11.719 5.9478 12 6.62608 12 7.33333C12 8.39419 11.5786 9.41161 10.8284 10.1618C10.0783 10.9119 9.06085 11.3333 7.99999 11.3333C6.93912 11.3333 5.92171 10.9119 5.17156 10.1618C4.42142 9.41161 3.99999 8.39419 3.99999 7.33333C3.99999 5.91884 4.56189 4.56228 5.56208 3.56209C6.56228 2.5619 7.91883 1.99999 9.33332 1.99999C10.7478 1.99999 12.1044 2.5619 13.1046 3.56209C14.1048 4.56228 14.6667 5.91884 14.6667 7.33333C14.6667 9.10144 13.9643 10.7971 12.714 12.0474C11.4638 13.2976 9.7681 14 7.99999 14C6.23188 14 4.53619 13.2976 3.28594 12.0474C2.0357 10.7971 1.33332 9.10144 1.33332 7.33333C1.33086 5.59572 1.89752 3.90512 2.94665 2.51999C3.0488 2.36934 3.18072 2.2412 3.33427 2.14346C3.48782 2.04572 3.65976 1.98046 3.83949 1.95169C4.01922 1.92293 4.20294 1.93126 4.37933 1.97619C4.55571 2.02112 4.72103 2.10169 4.8651 2.21293C5.00917 2.32417 5.12894 2.46374 5.21702 2.62302C5.30511 2.78231 5.35965 2.95794 5.37728 3.1391C5.39492 3.32026 5.37527 3.50312 5.31955 3.6764C5.26384 3.84968 5.17323 4.00972 5.05332 4.14666"
          stroke="#256CA8" stroke-linecap="round" stroke-linejoin="round"/>
</svg>
