<svg xmlns="http://www.w3.org/2000/svg" width="33" height="34" fill="none"><circle cx="15" cy="15" r="15" fill="#D98054"/><path fill="#E89B75" fill-rule="evenodd" d="M29.626 18.345C29.87 17.269 30 16.15 30 15c0-8.284-6.716-15-15-15S0 6.716 0 15s6.716 15 15 15a15 15 0 0 0 4.555-.704l-8.167-8.168L22.312 11.03l.006.006z" clip-rule="evenodd"/><g filter="url(#a)"><path fill="#fff" d="M7.236 12.125a.485.485 0 0 1 .01-.609c3.99-4.688 11.517-4.688 15.508 0 .148.174.149.428.01.61l-5.034 6.573a.5.5 0 0 0-.003.604l.913 1.218c.188.25.103.607-.19.712-1.919.69-4.981.69-6.9 0-.293-.105-.378-.463-.19-.712l.913-1.218a.5.5 0 0 0-.003-.604z"/></g><defs><filter id="a" width="23.733" height="21.75" x="3.133" y="6" color-interpolation-filters="sRGB" filterUnits="userSpaceOnUse"><feFlood flood-opacity="0" result="BackgroundImageFix"/><feColorMatrix in="SourceAlpha" result="hardAlpha" values="0 0 0 0 0 0 0 0 0 0 0 0 0 0 0 0 0 0 127 0"/><feOffset dy="2"/><feGaussianBlur stdDeviation="2"/><feComposite in2="hardAlpha" operator="out"/><feColorMatrix values="0 0 0 0 0 0 0 0 0 0 0 0 0 0 0 0 0 0 0.1 0"/><feBlend in2="BackgroundImageFix" result="effect1_dropShadow_105_29969"/><feBlend in="SourceGraphic" in2="effect1_dropShadow_105_29969" result="shape"/></filter></defs></svg>