<svg width="16" height="16" viewBox="0 0 16 16" fill="none" xmlns="http://www.w3.org/2000/svg">
    <path d="M5.33333 5.33337H10.6667M7 3.66665L8.99999 3.66671M7 3.66665L7.99999 1.33337L8.99999 3.66671M7 3.66665C6.90745 3.66665 6.78921 3.66671 6.66668 3.66671C6.29849 3.66671 5.99999 3.96518 5.99999 4.33337V5.33337L5.11466 5.32804C4.82243 5.7663 4.66654 6.28129 4.66666 6.80804V13.3334C4.66666 13.687 4.80713 14.0261 5.05718 14.2762C5.30723 14.5262 5.64637 14.6667 5.99999 14.6667H9.99999C10.3536 14.6667 10.6928 14.5262 10.9428 14.2762C11.1928 14.0261 11.3333 13.687 11.3333 13.3334V6.80737C11.3333 6.28085 11.1774 5.76611 10.8853 5.32804L9.99999 5.33337V4.33337C9.99999 3.96518 9.70173 3.66715 9.33354 3.66698C9.25441 3.66694 9.14945 3.66686 8.99999 3.66671M4.66666 10.0001C5.19451 9.77904 5.76106 9.6652 6.33332 9.6652C6.90559 9.6652 7.47214 9.77904 7.99999 10.0001C8.52782 10.2212 9.09438 10.3351 9.66666 10.3351C10.2389 10.3351 10.8055 10.2212 11.3333 10.0001"
          stroke="#256CA8" stroke-linecap="round" stroke-linejoin="round"/>
</svg>
