<svg xmlns="http://www.w3.org/2000/svg" width="33" height="34" fill="none"><circle cx="15" cy="15" r="15" fill="#E6A804"/><path fill="#F7B507" fill-rule="evenodd" d="M29.25 19.696c.487-1.478.75-3.056.75-4.696 0-8.284-6.716-15-15-15S0 6.716 0 15s6.716 15 15 15c1.104 0 2.18-.12 3.217-.346l-5.894-5.894 1.903-12.265-1.251-1.25.672-.673.76.76.19-1.234-.657-.659.9-.9.303-1.951z" clip-rule="evenodd"/><g fill="#fff" filter="url(#a)"><rect width="5.63" height="13.136" rx=".704" transform="matrix(-1 0 0 1 17.777 10.864)"/><rect width="4.222" height="1.407" rx=".469" transform="matrix(-1 0 0 1 17.073 8.987)"/><path d="M15.185 5.668a.235.235 0 0 0-.445 0l-.848 2.542a.235.235 0 0 0 .223.309h1.695c.16 0 .273-.157.222-.31z"/></g><defs><filter id="a" width="13.629" height="26.493" x="8.148" y="3.507" color-interpolation-filters="sRGB" filterUnits="userSpaceOnUse"><feFlood flood-opacity="0" result="BackgroundImageFix"/><feColorMatrix in="SourceAlpha" result="hardAlpha" values="0 0 0 0 0 0 0 0 0 0 0 0 0 0 0 0 0 0 127 0"/><feOffset dy="2"/><feGaussianBlur stdDeviation="2"/><feComposite in2="hardAlpha" operator="out"/><feColorMatrix values="0 0 0 0 0 0 0 0 0 0 0 0 0 0 0 0 0 0 0.1 0"/><feBlend in2="BackgroundImageFix" result="effect1_dropShadow_105_29989"/><feBlend in="SourceGraphic" in2="effect1_dropShadow_105_29989" result="shape"/></filter></defs></svg>