<svg width="13" height="14" viewBox="0 0 13 14" fill="none" xmlns="http://www.w3.org/2000/svg">
    <path d="M6.57659 12C10.2778 12 10.686 7.59307 10.7263 6.93479C10.7278 6.91129 10.6974 6.90394 10.6844 6.92352C10.4935 7.20951 9.75613 8.25003 9.35421 7.89012C9.34902 7.88547 9.34617 7.87813 9.34675 7.87118C9.65232 4.16702 8.12745 2.31138 5.99165 2.00427C5.97647 2.00208 5.96296 2.01249 5.96499 2.02769C6.01234 2.3822 6.46408 6.01584 5.03813 5.67647C4.50338 5.5492 3.91415 4.91308 3.82027 4.80864C3.81259 4.8001 3.79974 4.79903 3.79016 4.80536C2.30607 5.78701 3.65238 7.88348 3.34582 8.17647C3.04778 8.46133 2.73019 8.11643 2.31019 7.76916C2.2946 7.75626 2.27168 7.76745 2.27379 7.78757C2.3249 8.27458 2.83804 12 6.57659 12Z"
          fill="#F32813"/>
    <path d="M6.5626 12C9.56278 12 9.91842 8.50909 9.95684 7.92764C9.95839 7.90422 9.92821 7.89615 9.91498 7.91554C9.7468 8.16219 9.16036 8.96572 8.83688 8.68454C8.83156 8.67992 8.8287 8.6725 8.82929 8.66548C9.07948 5.67956 8.26804 4.55619 6.52644 4.31138C6.51249 4.30942 6.49976 4.31897 6.49973 4.33305C6.49921 4.61612 6.46244 7.16851 5.30386 6.89652C4.87107 6.79492 4.39467 6.29147 4.31007 6.19901C4.30239 6.19062 4.28935 6.18918 4.27985 6.19541C3.07033 6.98848 4.16986 8.6779 3.91925 8.91418C3.67715 9.14242 3.41929 8.8697 3.07933 8.5915C3.06372 8.57873 3.04087 8.58899 3.04307 8.60904C3.09002 9.03573 3.52542 12 6.5626 12Z"
          fill="#F76D11"/>
    <path d="M6.54862 12C8.84778 12 9.15012 9.62766 9.1871 9.16858C9.18894 9.14573 9.16017 9.13552 9.14622 9.15372C9.0025 9.34133 8.55513 9.88102 8.31086 9.67374C8.01894 9.42604 7.65799 8.16947 8.0311 6.26624C8.03433 6.24978 8.02082 6.23493 8.00457 6.23913C7.72006 6.31265 5.71897 6.88344 5.5696 8.42755C5.54292 8.70334 4.89554 8.04249 4.7985 7.94173C4.79111 7.93405 4.7794 7.93305 4.77023 7.93849C3.83417 8.49436 4.68739 9.67468 4.49267 9.8399C4.30638 9.99798 4.10807 9.81278 3.84779 9.62022C3.83195 9.60851 3.81028 9.61959 3.81282 9.63913C3.85706 9.9797 4.21772 12 6.54862 12Z"
          fill="#EEDE1F"/>
    <path d="M4.17601 3.89881C3.45862 2.79371 4.55051 2.4322 4.57681 2.03209C4.57667 2.02147 4.57659 2.01077 4.57659 2C4.57746 2.01073 4.57751 2.02142 4.57681 2.03209C4.58704 2.77332 4.9439 3.15764 4.21225 3.90262C4.20204 3.91302 4.18395 3.91104 4.17601 3.89881Z"
          fill="#F32813"/>
    <path d="M6.52065 12C7.44702 12 7.61699 11.1014 7.6472 10.8303C7.64973 10.8075 7.62102 10.797 7.60652 10.8148C7.53031 10.9081 7.37891 11.0696 7.28563 11.0102C7.27927 11.0062 7.27634 10.9984 7.27702 10.9908C7.35701 10.1106 7.09265 9.77344 6.52603 9.69571C6.51219 9.69381 6.49974 9.70429 6.49952 9.71825C6.49726 9.86149 6.46736 10.5463 6.10107 10.469C5.96745 10.4407 5.82136 10.3091 5.77812 10.2678C5.77052 10.2605 5.75869 10.2591 5.74976 10.2647C5.36266 10.505 5.72237 11.004 5.63953 11.0743C5.56524 11.1373 5.4865 11.073 5.38605 10.9972C5.37032 10.9854 5.34919 10.9972 5.35233 11.0167C5.38552 11.222 5.57372 12 6.52065 12Z"
          fill="#F7F7F7"/>
</svg>
