<svg width="13" height="14" viewBox="0 0 13 14" fill="none" xmlns="http://www.w3.org/2000/svg">
    <path d="M6.59956 13.5C11.4112 13.5 11.9418 7.771 11.9942 6.91522C11.9961 6.88468 11.9567 6.87512 11.9397 6.90058C11.6916 7.27237 10.733 8.62503 10.2105 8.15716C10.2037 8.15111 10.2 8.14157 10.2008 8.13253C10.598 3.31713 8.61567 0.904796 5.83913 0.505547C5.8194 0.502709 5.80184 0.516236 5.80448 0.535998C5.86604 0.99686 6.4533 5.7206 4.59956 5.27941C3.90439 5.11396 3.13839 4.287 3.01634 4.15123C3.00636 4.14013 2.98965 4.13873 2.9772 4.14697C1.04788 5.42311 2.79808 8.14852 2.39956 8.52941C2.01211 8.89972 1.59924 8.45136 1.05324 7.9999C1.03297 7.98314 1.00317 7.99768 1.00591 8.02384C1.07235 8.65695 1.73944 13.5 6.59956 13.5Z"
          fill="#F32813"/>
    <path d="M6.58138 13.5C10.4816 13.5 10.9439 8.96181 10.9939 8.20593C10.9959 8.17548 10.9567 8.16499 10.9395 8.1902C10.7208 8.51085 9.95846 9.55544 9.53793 9.1899C9.53102 9.18389 9.52731 9.17425 9.52807 9.16512C9.85331 5.28342 8.79845 3.82305 6.53436 3.50479C6.51623 3.50224 6.49967 3.51467 6.49964 3.53297C6.49896 3.90096 6.45116 7.21906 4.94501 6.86548C4.38238 6.73339 3.76306 6.07891 3.65308 5.95871C3.6431 5.94781 3.62615 5.94593 3.61379 5.95404C2.04142 6.98502 3.47081 9.18128 3.14501 9.48843C2.83029 9.78514 2.49507 9.43061 2.05312 9.06895C2.03282 9.05235 2.00312 9.06569 2.00599 9.09175C2.06701 9.64645 2.63304 13.5 6.58138 13.5Z"
          fill="#F76D11"/>
    <path d="M6.5632 13.5C9.55211 13.5 9.94514 10.416 9.99322 9.81916C9.99561 9.78945 9.95821 9.77618 9.94008 9.79984C9.75324 10.0437 9.17166 10.7453 8.8541 10.4759C8.47461 10.1539 8.00538 8.52031 8.49043 6.04612C8.49462 6.02471 8.47705 6.00541 8.45593 6.01086C8.08607 6.10645 5.48466 6.84848 5.29047 8.85581C5.25578 9.21434 4.41419 8.35524 4.28805 8.22425C4.27843 8.21426 4.26321 8.21296 4.25129 8.22004C3.03441 8.94266 4.1436 10.4771 3.89047 10.6919C3.64828 10.8974 3.39049 10.6566 3.05212 10.4063C3.03153 10.3911 3.00336 10.4055 3.00666 10.4309C3.06417 10.8736 3.53302 13.5 6.5632 13.5Z"
          fill="#EEDE1F"/>
    <path d="M3.4788 2.96846C2.54619 1.53182 3.96565 1.06185 3.99985 0.541716C3.99966 0.527907 3.99956 0.514002 3.99956 0.5C4.00069 0.513954 4.00076 0.527852 3.99985 0.541716C4.01315 1.50532 4.47706 2.00493 3.52592 2.9734C3.51264 2.98692 3.48912 2.98435 3.4788 2.96846Z"
          fill="#F32813"/>
    <path d="M6.52683 13.5C7.73111 13.5 7.95208 12.3318 7.99134 11.9794C7.99465 11.9498 7.95731 11.9361 7.93846 11.9592C7.83939 12.0805 7.64258 12.2905 7.52131 12.2133C7.51304 12.208 7.50923 12.1979 7.51012 12.1881C7.6141 11.0438 7.27044 10.6055 6.53383 10.5044C6.51584 10.502 6.49965 10.5156 6.49936 10.5337C6.49643 10.7199 6.45756 11.6103 5.98138 11.5096C5.80768 11.4729 5.61776 11.3018 5.56155 11.2481C5.55167 11.2387 5.53629 11.2368 5.52468 11.2441C5.02145 11.5565 5.48907 12.2052 5.38138 12.2965C5.2848 12.3785 5.18244 12.2948 5.05186 12.1964C5.0314 12.181 5.00393 12.1964 5.00802 12.2216C5.05116 12.4886 5.29583 13.5 6.52683 13.5Z"
          fill="#F7F7F7"/>
</svg>
