<svg xmlns="http://www.w3.org/2000/svg" width="33" height="34" fill="none"><circle cx="15" cy="15" r="15" fill="#BA9850"/><path fill="#C4A769" fill-rule="evenodd" d="M29.5 18.855c.326-1.23.5-2.522.5-3.855 0-8.284-6.716-15-15-15S0 6.716 0 15s6.716 15 15 15a15 15 0 0 0 5.136-.902L11 19.962l3.06-3.501-4.749-4.749L14.5 9l.78-1.872 3.702 3.702 1.163-1.33z" clip-rule="evenodd"/><g filter="url(#a)"><path fill="#fff" fill-rule="evenodd" d="M12.41 8.564c-.52.045-1.037.09-1.412.2-1.19.35-1.672 1.43-1.867 2.247-.129.537.315.989.867.989h10c.552 0 .996-.452.867-.99-.195-.816-.676-1.895-1.867-2.245-.375-.11-.891-.156-1.412-.201-.97-.085-1.956-.172-2.088-.682a.2.2 0 0 1-.006-.042c-.024-.37-.124-.84-.494-.84s-.47.47-.493.84q-.001.022-.007.042c-.131.51-1.118.597-2.087.682M9.977 13a.966.966 0 0 0-.976.97c.089 5.903 3.09 6.948 4.642 7.487.44.153.764.266.87.437.25.404.374.606.499.606s.25-.202.499-.606c.106-.171.43-.284.87-.437 1.55-.54 4.553-1.584 4.642-7.487a.966.966 0 0 0-.976-.97z" clip-rule="evenodd"/></g><defs><filter id="a" width="20.021" height="23.5" x="5" y="5" color-interpolation-filters="sRGB" filterUnits="userSpaceOnUse"><feFlood flood-opacity="0" result="BackgroundImageFix"/><feColorMatrix in="SourceAlpha" result="hardAlpha" values="0 0 0 0 0 0 0 0 0 0 0 0 0 0 0 0 0 0 127 0"/><feOffset dy="2"/><feGaussianBlur stdDeviation="2"/><feComposite in2="hardAlpha" operator="out"/><feColorMatrix values="0 0 0 0 0 0 0 0 0 0 0 0 0 0 0 0 0 0 0.1 0"/><feBlend in2="BackgroundImageFix" result="effect1_dropShadow_105_29624"/><feBlend in="SourceGraphic" in2="effect1_dropShadow_105_29624" result="shape"/></filter></defs></svg>