<svg width="16" height="16" viewBox="0 0 16 16" fill="none" xmlns="http://www.w3.org/2000/svg">
    <g clip-path="url(#clip0_681_2603)">
        <path d="M7.99998 2.66665V1.33331M7.99998 2.66665C5.33331 2.66665 2.99998 3.99998 2.66665 5.33331C2.50465 5.97998 2.05398 6.63465 1.33331 7.33331C2.20665 7.27865 2.64798 7.13998 3.33331 6.66665M7.99998 2.66665C10.6666 2.66665 13 3.99998 13.3333 5.33331C13.4946 5.97998 13.802 6.64265 14.6666 7.33331C13.7886 7.43798 13.3546 7.27731 12.6666 6.66665M3.33331 6.66665V9.33331C3.33342 10.3712 3.67935 11.3795 4.31643 12.1989C4.95351 13.0183 5.84544 13.6021 6.85131 13.858C7.12598 13.9273 7.38598 14.0526 7.58598 14.2526L7.99998 14.6666L8.41398 14.2526C8.61398 14.0526 8.87398 13.9273 9.14865 13.858C10.1546 13.6022 11.0466 13.0184 11.6837 12.199C12.3208 11.3796 12.6667 10.3713 12.6666 9.33331V6.66665M3.33331 6.66665C3.69331 7.27998 3.98798 7.57065 4.66665 7.99998C5.63465 7.56865 5.96931 7.26798 6.33331 6.66665C6.72998 7.32998 7.10065 7.61798 7.99998 7.99998C8.87331 7.58598 9.24131 7.29465 9.66665 6.66665C10.086 7.31798 10.4413 7.61531 11.3333 7.99998C12.1393 7.63465 12.4533 7.35531 12.6666 6.66665"
              stroke="#256CA8" stroke-linecap="round" stroke-linejoin="round"/>
    </g>
    <defs>
        <clipPath id="clip0_681_2603">
            <rect width="16" height="16" fill="white"/>
        </clipPath>
    </defs>
</svg>
