<svg xmlns="http://www.w3.org/2000/svg" width="33" height="34" fill="none"><circle cx="15" cy="15" r="15" fill="#C6984C"/><path fill="#BF9141" fill-rule="evenodd" d="M21.941 28.3 8.984 15.345l6.356-6.356 12.958 12.959a15.07 15.07 0 0 1-6.357 6.354" clip-rule="evenodd"/><g fill-rule="evenodd" clip-rule="evenodd" filter="url(#a)"><path fill="#BF9141" d="M19.287 13.772c-1.19-.396-2.277-1.483-2.674-2.674-.268-.807-.698-1.545-1.244-2.091-1.66-1.66-4.43-1.58-6.187.176s-1.835 4.527-.176 6.186c.546.546 1.284.976 2.091 1.245 1.19.396 2.278 1.483 2.674 2.674.269.807.699 1.545 1.244 2.091 1.66 1.66 4.43 1.58 6.187-.176s1.836-4.527.176-6.186c-.546-.546-1.284-.976-2.09-1.245"/><path fill="#fff" d="M7.964 11.281c-.386 1.442-.044 3.003 1.042 4.089.545.545 1.283.975 2.09 1.244 1.191.397 2.278 1.484 2.674 2.674.27.808.7 1.546 1.245 2.091 1.2 1.2 2.98 1.492 4.54.896a8 8 0 0 1-.805-.456c-1.787-1.158-3.114-3.015-4.118-5.077-.404-.831-1.192-1.436-2.122-1.718-2.296-.696-3.763-2.05-4.546-3.743m13.697 9.39a4.8 4.8 0 0 1-.992.992 6.6 6.6 0 0 1-1.375-.684c-1.574-1.019-2.8-2.695-3.763-4.675-.546-1.122-1.582-1.889-2.731-2.237-2.188-.663-3.453-1.961-4.068-3.533a6 6 0 0 1-.19-.559 4.8 4.8 0 0 1 1.434-1.432 6 6 0 0 1 1.08.423c1.15.586 2.128 1.576 2.753 3.108.138.34.584.451.843.192a.47.47 0 0 0 .108-.505c-.703-1.765-1.843-2.969-3.25-3.686a7 7 0 0 0-.227-.11c1.44-.385 3-.043 4.085 1.042.546.546.976 1.284 1.245 2.091.396 1.191 1.483 2.278 2.674 2.674.807.27 1.545.7 2.09 1.245 1.2 1.2 1.492 2.98.897 4.538a8 8 0 0 0-.458-.806c-.786-1.213-1.894-2.215-3.17-3.047a.486.486 0 0 0-.609.067.513.513 0 0 0 .09.789c1.177.771 2.163 1.674 2.85 2.735.278.429.509.887.684 1.377"/><path fill="#BF9141" d="M20.118 14.117a33 33 0 0 1-1.53 1.972l.845.55c.497-.594.993-1.242 1.532-1.987-.258-.2-.543-.38-.847-.535m1.63 1.324-.024.031c-1.356 1.883-2.408 3.117-3.916 4.42l.79.638c1.404-1.23 2.44-2.425 3.687-4.128a4 4 0 0 0-.536-.96m-.546 5.76c-1.757 1.757-4.527 1.836-6.186.177-.546-.546-.976-1.284-1.245-2.092-.396-1.19-1.483-2.277-2.674-2.674a5.6 5.6 0 0 1-1.709-.905c2.963-2.17 4.356-3.604 6.32-6.32a4.054 4.054 0 0 0-.715-.714l-.03.039c-1.957 2.716-3.28 4.083-6.252 6.25l-.037.03c-1.307-1.678-1.122-4.18.508-5.81-1.756 1.757-1.835 4.526-.176 6.186.546.546 1.284.976 2.091 1.245 1.19.396 2.278 1.483 2.674 2.674.269.807.699 1.545 1.244 2.09 1.66 1.66 4.43 1.582 6.187-.175M12.996 7.848c-.695.933-1.328 1.704-2.016 2.424a.51.51 0 0 0 .003.712.49.49 0 0 0 .702-.003c.801-.835 1.53-1.737 2.351-2.86a4.2 4.2 0 0 0-1.04-.273m4.161 6.128c.208.207.198.554-.022.773-.22.22-.566.23-.773.022-.208-.207-.198-.553.022-.773s.566-.23.773-.022"/></g><defs><filter id="a" width="22.762" height="22.762" x="3.811" y="5.812" color-interpolation-filters="sRGB" filterUnits="userSpaceOnUse"><feFlood flood-opacity="0" result="BackgroundImageFix"/><feColorMatrix in="SourceAlpha" result="hardAlpha" values="0 0 0 0 0 0 0 0 0 0 0 0 0 0 0 0 0 0 127 0"/><feOffset dy="2"/><feGaussianBlur stdDeviation="2"/><feComposite in2="hardAlpha" operator="out"/><feColorMatrix values="0 0 0 0 0 0 0 0 0 0 0 0 0 0 0 0 0 0 0.1 0"/><feBlend in2="BackgroundImageFix" result="effect1_dropShadow_105_29576"/><feBlend in="SourceGraphic" in2="effect1_dropShadow_105_29576" result="shape"/></filter></defs></svg>