<svg width="16" height="16" viewBox="0 0 16 16" fill="none" xmlns="http://www.w3.org/2000/svg">
    <path d="M5.16867 10.0046L5.40867 9.46056L5.53933 9.15255C5.92978 8.20018 5.93461 7.82721 5.55188 6.88529M5.02894 4.59068C4.96249 5.06559 5.01087 5.54952 5.17 6.00189L5.40933 6.54655L5.53933 6.85455C5.54356 6.86487 5.54774 6.87511 5.55188 6.88529M5.02894 4.59068C5.09538 4.11576 5.2747 3.66369 5.55188 3.27237C5.82905 2.88104 6.19599 2.56186 6.62195 2.34158C7.0479 2.1213 7.52046 2.00635 8 2.00635M5.02894 4.59068C6.86652 5.07145 7.61882 5.14234 8.50201 5.00452M8 2.00635C8.47954 2.00635 8.9521 2.1213 9.37805 2.34158C9.80401 2.56186 10.171 2.88104 10.4481 3.27237C10.7253 3.66369 10.9046 4.11576 10.9711 4.59068C11.0375 5.06559 10.9891 5.54952 10.83 6.00189L10.522 6.70455L10.4033 6.99389C10.0653 7.85522 10.0833 8.23589 10.458 9.15189L10.588 9.45989L10.8273 10.0046C10.9865 10.4569 11.0348 10.9408 10.9684 11.4158C10.9407 11.614 10.8933 11.8082 10.8273 11.9956C10.7352 12.2574 10.607 12.5061 10.4455 12.7341C10.1683 13.1254 9.80134 13.4446 9.37539 13.6649C8.94943 13.8851 8.47687 14.0001 7.99733 14.0001C7.51779 14.0001 7.04524 13.8851 6.61928 13.6649C6.19332 13.4446 5.82638 13.1254 5.54921 12.7341C5.27204 12.3428 5.09271 11.8907 5.02627 11.4158C4.95982 10.9408 5.0082 10.4569 5.16733 10.0046M8 2.00635C7.50201 2.50452 7.00201 3.50452 7.00201 5.50452M5.55188 6.88529C6.64316 7.14317 7.27651 7.21304 8.50201 7.00452"
          stroke="#256CA8" stroke-linecap="round" stroke-linejoin="round"/>
</svg>
