<svg width="16" height="16" viewBox="0 0 16 16" fill="none" xmlns="http://www.w3.org/2000/svg">
    <path d="M5.03836 13.9815L5.03427 14.4815L5.0343 14.4815L5.03836 13.9815ZM3.63224 9.51951L4.11311 9.65649L3.63224 9.51951ZM3.42608 10.6446L3.92335 10.6968L3.42608 10.6446ZM3.69942 9.53978L3.20969 9.43898H3.20969L3.69942 9.53978ZM3.49774 10.6509L3.00368 10.574L3.49774 10.6509ZM13.3572 6.86561L13.7756 7.13934L13.7756 7.13931L13.3572 6.86561ZM8.84327 5.63642L8.46807 5.96691L8.84327 5.63642ZM9.67835 6.41808L9.99107 6.02795L9.67835 6.41808ZM8.89664 5.59086L8.54709 5.94837V5.94837L8.89664 5.59086ZM9.72235 6.36118L9.3906 6.73527L9.72235 6.36118ZM5.0343 14.4815C6.01121 14.4894 6.97969 14.2166 7.66589 13.5464C8.36633 12.8624 8.69436 11.8414 8.52744 10.5264L7.5354 10.6523C7.67242 11.7317 7.39415 12.414 6.96719 12.831C6.52599 13.2619 5.84596 13.488 5.04241 13.4815L5.0343 14.4815ZM8.52744 10.5264C8.36102 9.21532 7.71214 7.98759 7.04424 7.09682C6.70834 6.64882 6.3567 6.27131 6.03919 6.00016C5.88101 5.86508 5.7224 5.74875 5.57088 5.66339C5.43395 5.58624 5.2439 5.50002 5.03836 5.50002V6.50002C4.98168 6.50002 4.98731 6.48239 5.08004 6.53463C5.15818 6.57866 5.2632 6.6525 5.38979 6.76061C5.6418 6.97582 5.94423 7.29668 6.24416 7.69671C6.84795 8.50198 7.39788 9.56891 7.5354 10.6523L8.52744 10.5264ZM5.03836 5.50002C4.8323 5.50002 4.64244 5.5866 4.50582 5.66408C4.35482 5.74971 4.19714 5.86632 4.04016 6.00148C3.72502 6.2728 3.37641 6.65033 3.04275 7.09794C2.37898 7.98841 1.73215 9.21357 1.55011 10.5203L2.54055 10.6583C2.69207 9.57065 3.24402 8.50116 3.84451 7.69559C4.14298 7.29518 4.44286 6.97433 4.69263 6.75929C4.81809 6.65127 4.92197 6.57769 4.99912 6.53394C5.09065 6.48203 5.09555 6.50002 5.03836 6.50002V5.50002ZM1.55011 10.5203C1.36619 11.8406 1.69902 12.8576 2.40715 13.5383C3.09734 14.2019 4.06952 14.4736 5.03427 14.4815L5.04244 13.4815C4.23894 13.4749 3.54783 13.2478 3.10018 12.8174C2.67047 12.4043 2.39092 11.7325 2.54055 10.6583L1.55011 10.5203ZM3.15137 9.38253C3.04449 9.75772 2.97078 10.1925 2.92881 10.5924L3.92335 10.6968C3.96122 10.3359 4.02639 9.96092 4.11311 9.65649L3.15137 9.38253ZM3.20969 9.43898C3.12748 9.8384 3.06464 10.1822 3.00368 10.574L3.9918 10.7277C4.05003 10.3534 4.1099 10.0257 4.18916 9.64058L3.20969 9.43898ZM2.92881 10.5924C2.91941 10.682 2.92663 10.8073 2.99643 10.9316C3.06977 11.0623 3.21316 11.1837 3.41183 11.2009C3.82688 11.2366 3.97069 10.8634 3.9918 10.7277L3.00368 10.574C3.01342 10.5114 3.11755 10.1718 3.49768 10.2046C3.6789 10.2202 3.80602 10.331 3.86842 10.4421C3.92728 10.547 3.92889 10.644 3.92335 10.6968L2.92881 10.5924ZM4.11311 9.65649C4.09845 9.70795 4.06052 9.79818 3.96609 9.87407C3.86539 9.95499 3.70589 10.0092 3.53299 9.95665C3.17615 9.84817 3.19638 9.50366 3.20969 9.43898L4.18916 9.64058C4.2167 9.50676 4.213 9.11818 3.82384 8.99988C3.63478 8.9424 3.45704 9.00027 3.3397 9.09456C3.22863 9.18381 3.1757 9.29712 3.15137 9.38253L4.11311 9.65649ZM13.7756 7.13931C14.3104 6.32174 14.6045 5.35952 14.4116 4.41994C14.2148 3.46086 13.5332 2.63296 12.3367 2.06249L11.9063 2.96515C12.8885 3.43341 13.3121 4.03637 13.4321 4.62099C13.556 5.22511 13.3786 5.91942 12.9387 6.5919L13.7756 7.13931ZM12.3367 2.06249C11.1437 1.49374 9.76008 1.37592 8.64963 1.45626C8.09115 1.49666 7.58347 1.58841 7.1837 1.70894C6.98456 1.76899 6.80094 1.83954 6.64721 1.92086C6.50829 1.99435 6.33301 2.10763 6.2219 2.28055L7.06318 2.82115C7.03254 2.86883 7.02075 2.85456 7.11483 2.80479C7.19411 2.76285 7.31301 2.71442 7.47239 2.66637C7.78968 2.5707 8.2231 2.48973 8.72179 2.45365C9.72565 2.38103 10.9205 2.49517 11.9063 2.96515L12.3367 2.06249ZM6.2219 2.28055C6.1105 2.4539 6.0807 2.66043 6.07203 2.81725C6.06244 2.99058 6.07529 3.18626 6.10414 3.3914C6.16203 3.80319 6.29118 4.30057 6.48737 4.82325C6.87768 5.86305 7.55871 7.06953 8.55966 7.92912L9.21116 7.17047C8.37804 6.45501 7.77668 5.4125 7.42359 4.47183C7.24809 4.00427 7.14028 3.57853 7.0944 3.25217C7.07135 3.08822 7.0656 2.96105 7.0705 2.87249C7.07631 2.76743 7.0941 2.77303 7.06318 2.82115L6.2219 2.28055ZM8.55966 7.92912C9.57097 8.7976 10.6064 9.06736 11.562 8.83964C12.4933 8.61769 13.2474 7.9467 13.7756 7.13934L12.9388 6.59188C12.4989 7.2643 11.9342 7.72293 11.3301 7.86688C10.7503 8.00507 10.0339 7.87703 9.21116 7.17047L8.55966 7.92912ZM8.46807 5.96691C8.72593 6.25965 9.05188 6.55673 9.36562 6.80822L9.99107 6.02795C9.70797 5.80102 9.42769 5.54345 9.21846 5.30592L8.46807 5.96691ZM8.54709 5.94837C8.83867 6.23345 9.09392 6.47217 9.3906 6.73527L10.0541 5.98709C9.77069 5.73576 9.52732 5.50821 9.24619 5.23334L8.54709 5.94837ZM9.36562 6.80822C9.43589 6.86454 9.54523 6.92622 9.68755 6.93471C9.83711 6.94364 10.0168 6.88867 10.1386 6.73078C10.3931 6.40094 10.1568 6.07819 10.0541 5.98709L9.3906 6.73527C9.34319 6.69323 9.11379 6.42205 9.34684 6.11996C9.45794 5.97595 9.61987 5.92889 9.74713 5.93649C9.86715 5.94365 9.94965 5.99475 9.99107 6.02795L9.36562 6.80822ZM9.21846 5.30592C9.25383 5.34608 9.30924 5.42676 9.32203 5.54723C9.33567 5.6757 9.29505 5.83919 9.15737 5.95623C8.8732 6.19779 8.59431 5.99453 8.54709 5.94837L9.24619 5.23334C9.1485 5.13783 8.81959 4.93088 8.50969 5.19431C8.35914 5.32229 8.31173 5.50311 8.32762 5.6528C8.34266 5.79448 8.40937 5.90028 8.46807 5.96691L9.21846 5.30592Z"
          fill="#256CA8"/>
</svg>
