<svg xmlns="http://www.w3.org/2000/svg" width="33" height="34" fill="none"><circle cx="15" cy="15" r="15" fill="#B09762"/><path fill="#C1AB7D" fill-rule="evenodd" d="M29.135 20.033C29.695 18.46 30 16.766 30 15c0-8.284-6.716-15-15-15S0 6.716 0 15s6.716 15 15 15c3.686 0 7.06-1.33 9.672-3.535L10.807 12.6l5.168-5.727z" clip-rule="evenodd"/><path fill="#B09762" fill-rule="evenodd" d="m23.53 27.34-9.693-9.692-3.3 3.79 8.114 8.115a14.9 14.9 0 0 0 4.878-2.212" clip-rule="evenodd"/><g filter="url(#a)"><path fill="#fff" d="M14.032 17.886c.87 1.073 1.018 3.036-.055 3.905s-2.962.315-3.83-.759c-1.15-1.42-1.262-3.681-1.24-4.795a.575.575 0 0 1 .693-.56c1.094.21 3.282.789 4.432 2.21"/><path fill="#B09762" d="M10.278 20.135c.375.464.502-.028.269-.577-.2-.472-.34-1.003-.436-1.38l-.02-.075c-.235-.902-.731-.777-.576.142.11.65.33 1.356.763 1.89"/><path fill="#fff" d="M21.718 15.939c.215 1.364-.638 3.138-2.002 3.353s-2.722-1.21-2.937-2.574c-.285-1.805.75-3.818 1.328-4.771a.575.575 0 0 1 .88-.139c.842.729 2.446 2.326 2.731 4.131"/><path fill="#B09762" d="M17.342 16.007c.093.59.449.228.522-.365.063-.51.209-1.038.313-1.412l.021-.075c.247-.9-.245-1.04-.57-.166-.23.617-.393 1.339-.286 2.018"/><path fill="#fff" d="M14.739 12.055c-.909 1.04-2.817 1.523-3.857.614s-.817-2.864.092-3.904c1.202-1.376 3.41-1.873 4.512-2.041a.575.575 0 0 1 .67.586c-.018 1.114-.215 3.369-1.417 4.745"/><path fill="#B09762" d="M11.88 8.741c-.393.45.113.49.615.166.43-.278.93-.505 1.284-.665l.071-.032c.848-.387.641-.855-.238-.544-.622.219-1.28.557-1.732 1.075"/></g><defs><filter id="a" width="20.846" height="23.502" x="4.905" y="4.717" color-interpolation-filters="sRGB" filterUnits="userSpaceOnUse"><feFlood flood-opacity="0" result="BackgroundImageFix"/><feColorMatrix in="SourceAlpha" result="hardAlpha" values="0 0 0 0 0 0 0 0 0 0 0 0 0 0 0 0 0 0 127 0"/><feOffset dy="2"/><feGaussianBlur stdDeviation="2"/><feComposite in2="hardAlpha" operator="out"/><feColorMatrix values="0 0 0 0 0 0 0 0 0 0 0 0 0 0 0 0 0 0 0.1 0"/><feBlend in2="BackgroundImageFix" result="effect1_dropShadow_105_30042"/><feBlend in="SourceGraphic" in2="effect1_dropShadow_105_30042" result="shape"/></filter></defs></svg>