<svg xmlns="http://www.w3.org/2000/svg" width="33" height="34" fill="none"><circle cx="15" cy="15" r="15" fill="#71909C"/><path fill="#8DA3AB" fill-rule="evenodd" d="M29.649 18.243c.23-1.045.351-2.13.351-3.243 0-8.284-6.716-15-15-15S0 6.716 0 15s6.716 15 15 15q.587 0 1.163-.044l-7.274-7.274 8.043-8.043-5.784-5.783 7.663-1.45z" clip-rule="evenodd"/><g filter="url(#a)"><path fill="#fff" d="M9.618 23a1 1 0 0 1-.894-1.447l3.17-6.342a1 1 0 0 0 .106-.447V9.5a.5.5 0 0 0-.5-.5.5.5 0 0 1-.5-.5V8a1 1 0 0 1 1-1h6a1 1 0 0 1 1 1v.5a.5.5 0 0 1-.5.5.5.5 0 0 0-.5.5v5.264c0 .155.036.308.106.447l3.17 6.342A1 1 0 0 1 20.382 23z"/><path fill="#71909C" d="M13.034 21.06q-.32 0-.64-.12a1.8 1.8 0 0 1-.565-.35l.42-.505q.174.15.39.245.214.095.415.095.23 0 .34-.085a.27.27 0 0 0 .115-.23.24.24 0 0 0-.13-.225 3 3 0 0 0-.34-.165l-.425-.18a1.4 1.4 0 0 1-.315-.185 1 1 0 0 1-.245-.295.85.85 0 0 1-.095-.41q0-.27.145-.49.15-.22.41-.35.264-.13.605-.13a1.52 1.52 0 0 1 1.05.43l-.375.465a1.4 1.4 0 0 0-.32-.19.9.9 0 0 0-.355-.07.53.53 0 0 0-.305.08.25.25 0 0 0-.11.215q0 .15.14.225a4 4 0 0 0 .355.16l.42.17q.294.12.47.33.174.21.175.555a.9.9 0 0 1-.145.5 1.04 1.04 0 0 1-.42.37q-.275.14-.665.14m3.258 0q-.44 0-.775-.205a1.4 1.4 0 0 1-.52-.585 2.1 2.1 0 0 1-.185-.915q0-.535.185-.905.19-.375.52-.57.335-.2.775-.2t.77.2q.335.195.52.57.19.375.19.905t-.19.915a1.37 1.37 0 0 1-.52.585q-.33.205-.77.205m0-.635q.335 0 .53-.29t.195-.78-.195-.765a.62.62 0 0 0-.53-.275q-.335 0-.53.275-.195.274-.195.765 0 .49.195.78t.53.29M18.111 22v-.252q.243-.231.429-.417.189-.189.294-.345a.54.54 0 0 0 .105-.294q0-.141-.075-.213a.26.26 0 0 0-.195-.075q-.102 0-.186.06a1 1 0 0 0-.153.135l-.24-.237q.141-.15.288-.225a.74.74 0 0 1 .351-.078q.189 0 .33.075t.219.213q.081.135.081.318a.7.7 0 0 1-.09.327q-.087.165-.225.333-.138.165-.294.327a3 3 0 0 1 .162-.015q.09-.009.156-.009h.384V22z"/></g><defs><filter id="a" width="20.767" height="24" x="4.617" y="5" color-interpolation-filters="sRGB" filterUnits="userSpaceOnUse"><feFlood flood-opacity="0" result="BackgroundImageFix"/><feColorMatrix in="SourceAlpha" result="hardAlpha" values="0 0 0 0 0 0 0 0 0 0 0 0 0 0 0 0 0 0 127 0"/><feOffset dy="2"/><feGaussianBlur stdDeviation="2"/><feComposite in2="hardAlpha" operator="out"/><feColorMatrix values="0 0 0 0 0 0 0 0 0 0 0 0 0 0 0 0 0 0 0.1 0"/><feBlend in2="BackgroundImageFix" result="effect1_dropShadow_105_30088"/><feBlend in="SourceGraphic" in2="effect1_dropShadow_105_30088" result="shape"/></filter></defs></svg>