<svg width="16" height="16" viewBox="0 0 16 16" fill="none" xmlns="http://www.w3.org/2000/svg">
    <path d="M9.24993 2V5.6C9.24984 5.80129 9.30249 5.99937 9.40304 6.176L12.8466 12.224C12.9508 12.4068 13.0036 12.6124 12.9998 12.8207C12.9961 13.029 12.9359 13.2328 12.8252 13.412C12.7146 13.5912 12.5572 13.7397 12.3686 13.8428C12.1801 13.9459 11.9668 14 11.7498 14H4.25022C4.03322 14 3.81994 13.9459 3.63137 13.8428C3.4428 13.7397 3.28544 13.5912 3.17477 13.412C3.0641 13.2328 3.00393 13.029 3.00019 12.8207C2.99644 12.6124 3.04924 12.4068 3.15341 12.224L6.59696 6.176C6.69751 5.99937 6.75016 5.80129 6.75007 5.6V2M4.53333 9.8H11.4667M5.81263 2H10.1874"
          stroke="#256CA8" stroke-linecap="round" stroke-linejoin="round"/>
</svg>
