<svg width="16" height="16" viewBox="0 0 16 16" fill="none" xmlns="http://www.w3.org/2000/svg">
    <path d="M6.19489 4.29309C6.5499 4.71617 6.49471 5.34692 6.07164 5.70193C5.64856 6.05693 5.01781 6.00174 4.66281 5.57867C4.3078 5.15559 4.36299 4.52484 4.78606 4.16984C5.20914 3.81483 5.83989 3.87002 6.19489 4.29309Z"
          stroke="#256CA8"/>
    <path d="M8.76605 7.35727C9.12105 7.78035 9.06586 8.4111 8.64279 8.7661C8.21971 9.12111 7.58896 9.06592 7.23396 8.64285C6.87895 8.21977 6.93414 7.58902 7.35721 7.23401C7.78029 6.87901 8.41104 6.9342 8.76605 7.35727Z"
          stroke="#256CA8"/>
    <path d="M11.3372 10.4214C11.6922 10.8445 11.637 11.4753 11.2139 11.8303C10.7909 12.1853 10.1601 12.1301 9.80511 11.707C9.45011 11.2839 9.50529 10.6532 9.92836 10.2982C10.3514 9.94319 10.9822 9.99837 11.3372 10.4214Z"
          stroke="#256CA8"/>
</svg>
