<svg xmlns="http://www.w3.org/2000/svg" width="33" height="34" fill="none"><circle cx="15" cy="15" r="15" fill="#76C16E"/><path fill="#93D38D" fill-rule="evenodd" d="M28.051 22.399A14.93 14.93 0 0 0 30 15c0-8.284-6.716-15-15-15S0 6.716 0 15s6.716 15 15 15c2.69 0 5.216-.708 7.399-1.949l-13.8-13.799 5.653-5.653z" clip-rule="evenodd"/><g filter="url(#a)"><circle cx="14.899" cy="14.9" r="4" fill="#fff" transform="rotate(-45 14.9 14.9)"/><path fill="#fff" d="M21.264 15.607c1.19 1.19 1.524 3.572 1.06 5.303-.05.186.088.446 0 .707-.123.371-.336.584-.707.708-.262.087-.522-.05-.707 0-1.731.463-4.113.13-5.303-1.061a4 4 0 0 1 5.657-5.657M14.285 8.628c-1.19-1.19-3.572-1.523-5.303-1.06-.186.05-.445-.087-.707 0-.37.123-.584.336-.708.707-.087.262.05.522 0 .707-.463 1.731-.13 4.113 1.061 5.303a4 4 0 0 0 5.657-5.657"/><circle cx="11.364" cy="11.364" r="2" fill="#76C16E" transform="rotate(-45 11.364 11.364)"/><circle cx="14.9" cy="14.9" r="2" fill="#76C16E" transform="rotate(-45 14.9 14.9)"/><circle cx="18.435" cy="18.436" r="2" fill="#76C16E" transform="rotate(-45 18.435 18.436)"/></g><defs><filter id="a" width="23.158" height="23.158" x="3.367" y="5.367" color-interpolation-filters="sRGB" filterUnits="userSpaceOnUse"><feFlood flood-opacity="0" result="BackgroundImageFix"/><feColorMatrix in="SourceAlpha" result="hardAlpha" values="0 0 0 0 0 0 0 0 0 0 0 0 0 0 0 0 0 0 127 0"/><feOffset dy="2"/><feGaussianBlur stdDeviation="2"/><feComposite in2="hardAlpha" operator="out"/><feColorMatrix values="0 0 0 0 0 0 0 0 0 0 0 0 0 0 0 0 0 0 0.1 0"/><feBlend in2="BackgroundImageFix" result="effect1_dropShadow_105_29711"/><feBlend in="SourceGraphic" in2="effect1_dropShadow_105_29711" result="shape"/></filter></defs></svg>