<svg xmlns="http://www.w3.org/2000/svg" width="33" height="34" fill="none"><circle cx="15" cy="15" r="15" fill="#DD6465"/><path fill="#E67778" fill-rule="evenodd" d="M29.65 18.24c.229-1.044.35-2.128.35-3.24 0-8.284-6.716-15-15-15S0 6.716 0 15s6.716 15 15 15q1.14 0 2.233-.165l-8.868-8.868L13 20.5l4-9 1.016-4.895z" clip-rule="evenodd"/><g filter="url(#a)"><path fill="#fff" d="M14.99 10.899c.992-.735 1.657-.508 1.657-.508s.899-1.415.818-2.402c-.04-.48-.153-.803-.338-1.187-.146-.305.573-.476.828-.255.546.474.398 1.313.174 1.668-.528.838-.817 2.402-.817 2.402s1.105.158 1.498 1.046c.839 1.894-1.555 7.515-4.268 9.268-3.803 2.458-7.3-.34-6.14-.482 1.16-.14 3.983.284 5.128-3.079.654-1.921-.027-5.37 1.46-6.471"/></g><defs><filter id="a" width="18.804" height="23.491" x="4.176" y="4.447" color-interpolation-filters="sRGB" filterUnits="userSpaceOnUse"><feFlood flood-opacity="0" result="BackgroundImageFix"/><feColorMatrix in="SourceAlpha" result="hardAlpha" values="0 0 0 0 0 0 0 0 0 0 0 0 0 0 0 0 0 0 127 0"/><feOffset dy="2"/><feGaussianBlur stdDeviation="2"/><feComposite in2="hardAlpha" operator="out"/><feColorMatrix values="0 0 0 0 0 0 0 0 0 0 0 0 0 0 0 0 0 0 0.1 0"/><feBlend in2="BackgroundImageFix" result="effect1_dropShadow_105_29308"/><feBlend in="SourceGraphic" in2="effect1_dropShadow_105_29308" result="shape"/></filter></defs></svg>