<svg width="20" height="20" viewBox="0 0 20 20" fill="none" xmlns="http://www.w3.org/2000/svg">
<path d="M13.7916 6.2778C14.5431 6.2778 15.2637 6.5763 15.7951 7.10765C16.3264 7.639 16.6249 8.35967 16.6249 9.11111C16.6249 11.115 15.8289 13.0367 14.412 14.4537C12.9951 15.8706 11.0733 16.6666 9.06944 16.6666C7.0656 16.6666 5.14383 15.8706 3.7269 14.4537C2.30997 13.0367 2.22235 10.7638 2.22235 10.7638C2.22235 11.4721 3.62854 12.8889 6.23613 12.8889C8.84372 12.8889 10.9583 11.1983 10.9583 9.11111C10.9583 8.35967 11.2568 7.639 11.7882 7.10765C12.3195 6.5763 13.0402 6.2778 13.7916 6.2778ZM13.7916 6.2778C13.7916 4.38892 15.6805 2.5 17.5694 2.5" stroke="#D60339" stroke-width="1.25" stroke-linecap="round" stroke-linejoin="round"/>
</svg>
