<svg xmlns="http://www.w3.org/2000/svg" width="33" height="34" fill="none"><circle cx="15" cy="15" r="15" fill="#7AC872"/><path fill="#93D38D" fill-rule="evenodd" d="M29.973 15.906Q30 15.456 30 15c0-8.284-6.716-15-15-15S0 6.716 0 15s6.716 15 15 15a15 15 0 0 0 3.252-.354L7.583 18.979l4.288-4.289 4.866 4.866 5.87-11.014z" clip-rule="evenodd"/><g filter="url(#a)"><path fill="#fff" fill-rule="evenodd" d="M22.825 8.901a.713.713 0 0 0-.892-.514c-1.566.444-5.323 1.706-6.742 3.905-1.559 2.415-.828 6.782-.447 8.526a.71.71 0 0 0 .918.53c1.7-.544 5.847-2.097 7.157-4.656 1.193-2.329.405-6.212.006-7.79M6.87 13.256a.694.694 0 0 0-.721.721c.036 1.227.254 3.704 1.39 4.959 1.248 1.38 4.006 1.722 5.353 1.806a.693.693 0 0 0 .743-.743c-.085-1.346-.427-4.104-1.807-5.353-1.255-1.135-3.732-1.354-4.958-1.39" clip-rule="evenodd"/></g><defs><filter id="a" width="25.302" height="21.025" x="2.149" y="6.358" color-interpolation-filters="sRGB" filterUnits="userSpaceOnUse"><feFlood flood-opacity="0" result="BackgroundImageFix"/><feColorMatrix in="SourceAlpha" result="hardAlpha" values="0 0 0 0 0 0 0 0 0 0 0 0 0 0 0 0 0 0 127 0"/><feOffset dy="2"/><feGaussianBlur stdDeviation="2"/><feComposite in2="hardAlpha" operator="out"/><feColorMatrix values="0 0 0 0 0 0 0 0 0 0 0 0 0 0 0 0 0 0 0.1 0"/><feBlend in2="BackgroundImageFix" result="effect1_dropShadow_105_29251"/><feBlend in="SourceGraphic" in2="effect1_dropShadow_105_29251" result="shape"/></filter></defs></svg>