<svg width="20" height="20" viewBox="0 0 20 20" fill="none" xmlns="http://www.w3.org/2000/svg">
<path d="M13.3334 6.6666C16.6667 6.6666 18.3334 4.99993 18.3334 1.6666C15 1.6666 13.3334 3.33326 13.3334 6.6666ZM13.3334 6.6666C11.25 10.4166 10.75 12.6499 10 18.3333C9.90396 15.1168 9.10877 11.9599 7.6697 9.08175C6.23063 6.20362 4.18219 3.6733 1.66669 1.6666M14.5084 2.9916C12.779 1.87915 10.6995 1.44533 8.66965 1.77357C6.63979 2.10181 4.80296 3.16892 3.51239 4.7697C2.22182 6.37047 1.56864 8.39187 1.67847 10.4452C1.7883 12.4984 2.65338 14.4386 4.10735 15.8926C5.56132 17.3466 7.50151 18.2117 9.55479 18.3215C11.6081 18.4313 13.6295 17.7781 15.2303 16.4876C16.831 15.197 17.8981 13.3602 18.2264 11.3303C18.5546 9.30045 18.1208 7.22091 17.0084 5.4916" stroke="#03934A" stroke-width="1.25" stroke-linecap="round" stroke-linejoin="round"/>
</svg>
