<svg width="20" height="20" viewBox="0 0 20 20" fill="none" xmlns="http://www.w3.org/2000/svg">
<path d="M11.3499 6.98493L12.9882 5.34576C12.7944 5.15199 12.6514 4.91341 12.5718 4.65115C12.4922 4.38889 12.4785 4.11104 12.5319 3.84223C12.5853 3.57341 12.7042 3.32191 12.878 3.11001C13.0518 2.89811 13.2752 2.73235 13.5284 2.62741C13.7816 2.52247 14.0568 2.48159 14.3296 2.50839C14.6023 2.53519 14.8643 2.62885 15.0922 2.78106C15.3201 2.93327 15.507 3.13934 15.6362 3.38102C15.7655 3.62269 15.8332 3.89252 15.8332 4.1666C16.1074 4.1664 16.3774 4.23383 16.6192 4.36292C16.8611 4.492 17.0673 4.67875 17.2198 4.90662C17.3722 5.13449 17.466 5.39644 17.493 5.66926C17.52 5.94207 17.4793 6.21733 17.3744 6.47064C17.2696 6.72394 17.1039 6.94748 16.892 7.12143C16.6801 7.29538 16.4286 7.41438 16.1597 7.46788C15.8908 7.52138 15.6129 7.50773 15.3506 7.42814C15.0882 7.34855 14.8496 7.20548 14.6557 7.0116L13.1391 8.5291M10.8116 17.8541C9.83664 18.8299 7.19748 17.7749 4.91998 15.4966C2.64164 13.2191 1.58665 10.5807 2.56331 9.60407C3.53831 8.62824 6.17748 9.68324 8.45498 11.9616C10.7333 14.2391 11.7883 16.8774 10.8116 17.8541ZM10.8116 17.8541C12.13 16.5357 13.045 15.0151 13.5142 13.5209M6.24997 13.3333L7.0833 14.1667M13.8333 10.4999C13.7 9.46821 13.2892 8.54571 12.58 7.83738C11.8717 7.12905 10.9508 6.71738 9.92001 6.58488M6.89496 6.90348C5.40163 7.37265 3.88163 8.28682 2.56329 9.60515M2.49997 2.5L17.5 17.5" stroke="#D60339" stroke-width="1.25" stroke-linecap="round" stroke-linejoin="round"/>
</svg>
