<svg xmlns="http://www.w3.org/2000/svg" width="33" height="34" fill="none"><circle cx="15" cy="15" r="15" fill="#DC6465"/><path fill="#E67778" fill-rule="evenodd" d="M29.76 17.692c.157-.873.24-1.773.24-2.692 0-8.284-6.716-15-15-15S0 6.716 0 15s6.716 15 15 15c.86 0 1.704-.072 2.524-.212L9.236 21.5 19.662 7.595z" clip-rule="evenodd"/><g filter="url(#a)"><path fill="#fff" d="M21.091 17.418c-1.335 4.822-5.552 5.512-9.523 5-6.24-.805.423-5.994-.844-7.872-2.437-3.612-2.599-9.392 6.47-8.195 4.05.534 5.233 6.245 3.897 11.067"/><path fill="#DD6465" d="M19.65 16.748c-1.023 3.695-4.254 4.224-7.297 3.831-4.78-.616.324-4.592-.647-6.03-1.867-2.769-1.991-7.197 4.957-6.28 3.104.41 4.01 4.785 2.987 8.48"/><circle cx="13.894" cy="11.899" r="1.777" fill="#fff" transform="rotate(15.481 13.894 11.9)"/></g><g filter="url(#b)"><path fill="#fff" fill-rule="evenodd" d="m27.193 6.244-20.95 20.95a15 15 0 0 1-2.243-2L25.194 4c.739.679 1.409 1.43 2 2.244" clip-rule="evenodd"/></g><defs><filter id="a" width="20.759" height="24.37" x="4.857" y="4.19" color-interpolation-filters="sRGB" filterUnits="userSpaceOnUse"><feFlood flood-opacity="0" result="BackgroundImageFix"/><feColorMatrix in="SourceAlpha" result="hardAlpha" values="0 0 0 0 0 0 0 0 0 0 0 0 0 0 0 0 0 0 127 0"/><feOffset dy="2"/><feGaussianBlur stdDeviation="2"/><feComposite in2="hardAlpha" operator="out"/><feColorMatrix values="0 0 0 0 0 0 0 0 0 0 0 0 0 0 0 0 0 0 0.1 0"/><feBlend in2="BackgroundImageFix" result="effect1_dropShadow_105_29315"/><feBlend in="SourceGraphic" in2="effect1_dropShadow_105_29315" result="shape"/></filter><filter id="b" width="31.193" height="31.193" x="0" y="2" color-interpolation-filters="sRGB" filterUnits="userSpaceOnUse"><feFlood flood-opacity="0" result="BackgroundImageFix"/><feColorMatrix in="SourceAlpha" result="hardAlpha" values="0 0 0 0 0 0 0 0 0 0 0 0 0 0 0 0 0 0 127 0"/><feOffset dy="2"/><feGaussianBlur stdDeviation="2"/><feComposite in2="hardAlpha" operator="out"/><feColorMatrix values="0 0 0 0 0 0 0 0 0 0 0 0 0 0 0 0 0 0 0.1 0"/><feBlend in2="BackgroundImageFix" result="effect1_dropShadow_105_29315"/><feBlend in="SourceGraphic" in2="effect1_dropShadow_105_29315" result="shape"/></filter></defs></svg>