<svg width="24" height="18" viewBox="0 0 24 18" fill="none" xmlns="http://www.w3.org/2000/svg">
    <path d="M-3.05176e-05 0H24V18H-3.05176e-05V0Z" fill="#012169"/>
    <path d="M2.81247 0L11.9625 6.7875L21.075 0H24V2.325L15 9.0375L24 15.7125V18H21L12 11.2875L3.03747 18H-3.05176e-05V15.75L8.96247 9.075L-3.05176e-05 2.4V0H2.81247Z"
          fill="white"/>
    <path d="M15.9 10.5375L24 16.5V18L13.8375 10.5375H15.9ZM8.99997 11.2875L9.22497 12.6L2.02497 18H-3.05176e-05L8.99997 11.2875ZM24 0V0.1125L14.6625 7.1625L14.7375 5.5125L22.125 0H24ZM-3.05176e-05 0L8.96247 6.6H6.71247L-3.05176e-05 1.575V0Z"
          fill="#C8102E"/>
    <path d="M9.03747 0V18H15.0375V0H9.03747ZM-3.05176e-05 6V12H24V6H-3.05176e-05Z" fill="white"/>
    <path d="M-3.05176e-05 7.2375V10.8375H24V7.2375H-3.05176e-05ZM10.2375 0V18H13.8375V0H10.2375Z" fill="#C8102E"/>
</svg>
