<svg width="19" height="14" viewBox="0 0 19 14" fill="none" xmlns="http://www.w3.org/2000/svg">
    <path d="M0 0H18.6667V14H0V0Z" fill="#012169"/>
    <path d="M2.1875 0L9.30417 5.27917L16.3917 0H18.6667V1.80833L11.6667 7.02917L18.6667 12.2208V14H16.3333L9.33333 8.77917L2.3625 14H0V12.25L6.97083 7.05833L0 1.86667V0H2.1875Z"
          fill="white"/>
    <path d="M12.3667 8.19583L18.6667 12.8333V14L10.7625 8.19583H12.3667ZM7 8.77917L7.175 9.8L1.575 14H0L7 8.77917ZM18.6667 0V0.0875L11.4042 5.57083L11.4625 4.2875L17.2083 0H18.6667ZM0 0L6.97083 5.13333H5.22083L0 1.225V0Z"
          fill="#C8102E"/>
    <path d="M7.02917 0V14H11.6958V0H7.02917ZM0 4.66667V9.33333H18.6667V4.66667H0Z" fill="white"/>
    <path d="M0 5.62917V8.42917H18.6667V5.62917H0ZM7.9625 0V14H10.7625V0H7.9625Z" fill="#C8102E"/>
</svg>
